<?xml version="1.0" standalone="no"?>
<!DOCTYPE svg PUBLIC "-//W3C//DTD SVG 20010904//EN"
 "http://www.w3.org/TR/2001/REC-SVG-20010904/DTD/svg10.dtd">
<svg version="1.0" xmlns="http://www.w3.org/2000/svg"
 width="1890.000000pt" height="630.000000pt" viewBox="0 0 1890.000000 630.000000"
 preserveAspectRatio="xMidYMid meet">

<g transform="translate(0.000000,630.000000) scale(0.100000,-0.100000)"
fill="#000000" stroke="none">
<path d="M11694 6243 c-226 -161 -556 -473 -721 -678 -484 -605 -741 -1212
-825 -1940 -16 -143 -16 -560 1 -700 54 -464 168 -852 361 -1230 279 -546 713
-1058 1180 -1392 113 -80 346 -232 373 -242 12 -5 33 -21 46 -35 l24 -26 1335
0 1334 0 -25 43 c-20 35 -52 92 -118 217 -28 52 -155 321 -165 348 -6 17 -8
32 -3 32 5 0 6 7 3 15 -4 8 -11 12 -17 8 -6 -3 -7 -1 -3 5 4 6 -3 29 -14 52
-11 22 -17 40 -14 40 4 0 35 -27 70 -60 34 -33 70 -60 79 -60 26 0 115 69 115
89 0 10 -10 26 -22 37 -20 16 -21 17 -9 1 16 -20 16 -21 -59 -72 l-55 -37 -20
24 c-55 65 -75 86 -115 123 -24 22 -38 32 -31 23 11 -15 11 -18 -1 -18 -20 0
-38 21 -38 44 0 10 -3 16 -6 13 -6 -5 -84 116 -84 129 0 5 -82 121 -100 141
-5 7 -10 17 -10 24 0 23 -135 146 -175 159 -22 7 -45 17 -51 22 -7 5 -34 7
-60 4 -27 -2 -56 0 -65 5 -9 4 -37 10 -62 12 -26 2 -53 10 -62 17 -11 9 -22 9
-44 2 -16 -6 -32 -8 -34 -5 -3 3 -20 6 -38 7 -18 1 -35 8 -37 14 -2 7 -11 12
-20 12 -10 0 -22 8 -28 18 -6 9 -37 31 -69 47 -31 17 -67 39 -79 51 -20 20
-50 36 -71 38 -5 1 -26 13 -46 29 -20 15 -41 27 -48 27 -7 0 -23 11 -37 25
-14 14 -29 25 -35 25 -6 0 -15 13 -20 30 -6 16 -15 27 -20 24 -5 -3 -9 0 -9 5
0 6 -4 11 -10 11 -13 0 -70 60 -70 74 0 6 -4 5 -9 -3 -7 -11 -10 -9 -16 8 -3
11 -10 21 -15 21 -5 0 -7 7 -4 15 4 9 0 15 -8 15 -7 0 -21 9 -31 20 -10 12
-23 17 -34 14 -13 -4 -15 -3 -5 4 11 7 8 15 -12 37 -14 15 -26 34 -26 42 0 8
-4 11 -10 8 -5 -3 -10 2 -10 13 0 25 -31 52 -59 52 -12 0 -20 4 -17 9 6 10
-94 117 -106 114 -4 -2 -18 11 -32 27 -13 17 -28 30 -32 30 -9 0 -44 41 -44
52 0 5 -3 7 -7 5 -11 -7 -33 19 -25 28 4 4 -3 4 -16 0 -19 -5 -23 -3 -20 12 2
12 -2 17 -15 15 -9 -2 -20 4 -23 12 -7 18 -79 57 -89 48 -3 -3 -3 1 1 11 5 13
2 16 -12 10 -10 -4 -15 -2 -11 3 6 11 -44 40 -78 47 -11 2 -19 9 -17 16 1 7
-1 10 -5 8 -5 -3 -60 44 -123 105 -138 132 -150 140 -150 99 0 -41 -9 -61 -26
-54 -8 3 -14 0 -14 -6 0 -28 -59 -68 -142 -95 -74 -24 -95 -36 -142 -82 -31
-29 -56 -62 -56 -73 0 -14 -20 -31 -67 -58 -37 -20 -91 -56 -119 -79 -69 -56
-143 -93 -232 -115 -80 -20 -156 -60 -177 -93 -7 -11 -19 -40 -26 -63 -9 -33
-17 -43 -34 -43 -11 0 -26 -5 -32 -11 -9 -9 -23 -9 -57 0 -56 14 -113 14 -121
0 -17 -26 43 -118 67 -102 5 3 6 -11 3 -31 -8 -38 15 -88 36 -83 7 1 14 -4 16
-12 4 -10 -1 -11 -18 -6 -21 7 -22 6 -11 -8 7 -8 9 -17 4 -19 -5 -1 2 -28 16
-58 125 -272 166 -350 298 -552 73 -113 85 -126 106 -121 30 7 227 75 298 103
65 26 130 61 130 71 0 4 15 10 34 13 19 4 37 13 40 21 3 8 12 15 20 15 8 0 50
15 93 34 44 18 94 37 113 41 19 4 41 11 50 15 8 4 29 14 45 21 17 8 34 20 38
26 4 7 14 13 21 13 15 0 86 66 86 81 0 5 17 17 38 25 20 9 45 20 54 25 26 13
31 11 14 -6 -8 -8 -24 -15 -35 -15 -12 0 -21 -6 -21 -15 0 -8 -4 -15 -10 -15
-5 0 -10 -7 -10 -15 0 -8 -5 -15 -11 -15 -8 0 -7 -5 2 -16 7 -9 9 -18 3 -22
-13 -10 -13 -62 0 -62 6 0 3 -5 -7 -11 -9 -6 -15 -15 -11 -20 4 -6 12 -5 22 3
10 7 7 1 -6 -13 -12 -14 -20 -28 -17 -31 11 -10 14 -48 4 -53 -5 -4 -7 -11 -4
-16 4 -5 1 -9 -5 -9 -6 0 -9 14 -7 34 2 19 0 40 -4 48 -6 9 -9 6 -9 -10 0 -12
-7 -25 -15 -28 -8 -4 -15 -15 -15 -26 0 -10 5 -16 10 -13 6 3 10 1 10 -4 0 -6
9 -11 20 -11 14 0 18 -5 13 -17 -4 -11 -8 -12 -11 -5 -7 21 -22 13 -22 -12 0
-33 -10 -57 -21 -50 -15 9 -10 -20 7 -44 11 -17 13 -26 5 -36 -6 -7 -8 -16 -4
-20 4 -4 0 -4 -10 0 -14 5 -15 9 -6 20 18 22 7 24 -19 4 -12 -10 -18 -21 -13
-25 6 -3 8 -12 4 -20 -3 -8 0 -15 7 -15 6 0 8 -5 5 -10 -4 -7 -13 -7 -24 0
-10 5 -22 6 -27 2 -5 -4 1 3 14 16 21 20 17 28 -12 23 -5 -1 -4 5 3 13 11 13
10 15 -8 11 -12 -2 -19 0 -16 6 4 5 17 9 31 9 15 0 23 4 19 10 -4 6 -12 7 -18
3 -12 -7 11 26 28 40 6 5 3 7 -7 4 -13 -5 -16 0 -15 20 2 17 12 29 32 39 l30
14 -28 -5 c-22 -4 -27 -3 -21 7 12 19 12 48 0 48 -7 0 -6 3 1 8 7 4 14 19 15
32 2 14 8 29 13 33 6 5 -1 5 -13 2 -22 -6 -23 -5 -13 14 7 12 16 21 21 21 6 0
9 5 7 12 -1 7 4 13 11 14 6 1 18 2 25 3 6 2 3 6 -8 10 -11 5 -24 6 -30 3 -5
-4 -16 -7 -23 -8 -30 -5 -43 -14 -36 -26 4 -7 4 -10 -1 -6 -4 4 -14 0 -22 -8
-11 -10 -19 -12 -27 -5 -9 8 -18 5 -32 -7 -11 -10 -25 -17 -32 -14 -7 2 -10
-2 -6 -12 3 -9 1 -16 -5 -16 -6 0 -11 -6 -11 -14 0 -8 -6 -17 -12 -19 -8 -4
-7 -6 3 -6 20 -1 31 -24 23 -46 -4 -10 0 -15 11 -15 13 0 15 -3 6 -13 -6 -8
-8 -16 -5 -19 2 -3 -7 -8 -21 -10 -14 -3 -25 -1 -25 6 0 6 -5 4 -10 -4 -13
-21 -12 -30 3 -25 7 3 13 -4 13 -20 2 -24 1 -25 -12 -8 -7 10 -14 16 -15 13
-3 -9 -9 -44 -15 -85 -6 -38 -5 -39 10 -20 8 11 16 15 16 8 0 -6 -12 -21 -27
-33 -16 -12 -22 -19 -16 -15 8 4 11 1 7 -9 -6 -16 -34 -30 -43 -21 -3 3 0 10
8 14 10 6 9 10 -4 14 -9 4 -14 3 -10 -3 3 -6 0 -13 -8 -16 -8 -3 -17 -15 -21
-26 -4 -19 -7 -20 -22 -7 -16 13 -16 14 -1 17 10 2 17 10 17 18 0 8 4 13 8 10
4 -2 13 4 20 14 9 15 9 22 -3 34 -19 19 -19 26 1 26 8 0 13 4 9 10 -3 5 -12 7
-19 4 -8 -3 -17 -1 -21 5 -3 6 -13 11 -21 11 -8 0 -12 -4 -9 -10 4 -6 -1 -7
-11 -3 -11 4 -13 8 -6 11 7 2 12 8 12 14 0 6 -7 8 -15 4 -12 -4 -13 -2 -6 12
5 9 7 29 5 45 -3 29 2 32 26 17 11 -7 11 -10 2 -10 -7 0 -10 -5 -6 -11 9 -16
37 37 31 59 -3 12 -5 11 -6 -5 0 -13 -7 -23 -15 -23 -7 0 -13 9 -12 20 1 27
26 42 43 28 10 -8 13 -4 13 16 0 29 -5 31 -43 14 -15 -7 -27 -21 -27 -31 0
-11 -6 -17 -12 -14 -7 2 -18 -3 -25 -12 -17 -23 -16 -34 3 -27 13 5 14 4 6 -7
-7 -8 -9 -17 -5 -20 3 -4 1 -7 -6 -7 -8 0 -11 -8 -8 -20 3 -11 1 -20 -3 -20
-5 0 -10 8 -13 18 -3 13 -6 10 -11 -10 -5 -16 -13 -28 -18 -28 -6 0 -4 -8 3
-17 12 -14 12 -16 0 -8 -10 6 -12 4 -7 -4 5 -7 14 -10 22 -7 11 4 11 2 2 -14
-7 -10 -15 -17 -19 -14 -4 2 -12 -3 -17 -12 -5 -9 -12 -15 -15 -15 -20 3 -27
-1 -36 -18 -9 -15 -7 -20 10 -24 16 -4 19 -2 14 13 -3 10 -1 21 5 25 5 3 10 1
10 -6 0 -7 6 -5 13 6 10 12 16 14 21 7 7 -11 -9 -52 -20 -52 -3 0 -2 5 1 10 3
6 2 10 -3 10 -9 0 -22 -22 -22 -36 0 -3 9 0 21 6 11 7 23 9 26 6 9 -9 -18 -36
-29 -30 -6 4 -8 -1 -4 -14 4 -11 2 -23 -4 -27 -6 -3 -8 -11 -5 -16 3 -5 -1 -6
-9 -3 -9 3 -16 12 -16 19 0 16 -19 30 -28 20 -3 -3 0 -11 8 -16 11 -8 8 -9
-14 -4 -23 5 -27 3 -22 -10 3 -9 2 -13 -4 -10 -6 3 -10 1 -10 -6 0 -7 -8 -2
-19 9 -10 12 -22 18 -26 14 -5 -4 -5 -2 -1 5 4 7 13 10 21 6 8 -3 15 0 15 6 0
6 -4 11 -10 11 -5 0 -10 7 -10 15 0 10 6 12 18 8 15 -6 15 -5 3 10 -7 9 -17
15 -21 12 -5 -3 -7 2 -6 11 1 8 7 19 13 22 6 4 13 21 15 37 2 23 7 29 22 27
17 -3 18 -1 7 11 -15 19 3 54 32 63 14 4 16 9 6 20 -13 16 -36 19 -41 4 -1 -5
-13 -11 -26 -13 -13 -2 -27 -9 -31 -16 -4 -6 -15 -9 -24 -6 -10 4 -21 -1 -28
-14 -10 -15 -16 -17 -26 -9 -10 8 -13 6 -13 -5 0 -10 -6 -14 -14 -11 -16 6
-29 -35 -20 -60 3 -9 1 -16 -6 -16 -6 0 -9 4 -6 9 3 5 -1 11 -9 15 -8 3 -17 0
-21 -6 -4 -7 -3 -8 4 -4 11 6 16 -6 13 -27 0 -4 4 -7 10 -7 5 0 8 -4 4 -9 -3
-5 3 -12 12 -14 17 -4 17 -5 1 -6 -25 -1 -22 -32 3 -38 12 -3 18 -11 15 -19
-3 -8 0 -14 6 -14 6 0 8 -3 5 -7 -4 -4 5 -20 20 -37 15 -17 -10 5 -55 49 -95
91 -287 310 -379 431 -315 415 -547 924 -647 1421 -52 254 -60 348 -61 673 0
333 9 435 66 705 185 884 758 1730 1529 2257 41 28 79 55 85 60 5 4 -20 8 -57
8 -63 0 -67 -2 -144 -57z m116 -3808 c0 -6 9 -20 20 -30 23 -21 26 -35 6 -35
-19 0 -30 -31 -14 -41 6 -4 20 -3 31 2 18 10 18 10 0 -18 -14 -22 -14 -25 -2
-16 13 10 16 10 16 -2 0 -8 -4 -15 -9 -15 -5 0 -7 -4 -4 -9 4 -5 2 -21 -4 -35
-6 -17 -6 -26 0 -26 6 0 10 6 11 13 0 9 2 9 5 0 3 -6 -8 -26 -25 -44 -24 -25
-36 -30 -56 -25 -14 4 -23 11 -20 16 3 6 -1 10 -10 10 -9 0 -14 -4 -10 -9 3
-5 -4 -12 -15 -16 -11 -3 -20 -11 -20 -16 0 -11 12 -12 26 -1 5 4 -1 -3 -13
-15 -13 -12 -23 -28 -23 -35 0 -7 9 -2 19 11 17 22 49 22 36 0 -4 -5 -1 -9 4
-9 6 0 11 -5 11 -11 0 -6 -7 -8 -16 -5 -10 4 -18 0 -21 -13 -7 -28 -42 -22
-59 11 -8 15 -19 28 -25 28 -6 0 -3 -7 5 -16 20 -19 21 -44 1 -44 -9 0 -12 6
-8 18 5 14 3 13 -10 -3 -14 -19 -16 -19 -34 -2 -11 9 -24 17 -30 17 -6 0 -13
4 -15 10 -1 5 -16 11 -31 12 -16 1 -33 10 -38 20 -5 10 -18 18 -28 18 -10 0
-24 7 -31 15 -23 28 -5 34 50 14 64 -23 70 -23 45 -6 -10 8 -15 19 -11 26 4 6
2 18 -4 26 -17 20 -7 19 32 -5 35 -21 71 -18 97 8 13 13 13 16 -4 28 -10 8
-24 14 -31 14 -7 0 -14 6 -17 13 -3 7 -9 2 -14 -12 -9 -21 -10 -22 -16 -6 -5
11 -1 22 10 31 10 7 20 8 21 3 7 -18 24 -8 19 11 -3 11 -1 23 4 26 5 3 9 -4 9
-16 0 -13 5 -20 13 -17 6 2 11 11 9 20 -2 12 2 15 14 10 13 -5 15 -2 10 15 -6
17 -4 21 8 16 9 -3 16 -1 16 5 0 6 9 11 20 11 20 0 45 -34 36 -49 -3 -5 5 -16
18 -24 22 -15 25 -15 41 2 15 18 15 20 -7 35 -13 9 -24 29 -25 44 -4 44 -3 73
2 82 8 12 35 1 35 -15z m-324 -236 c0 -15 -3 -15 -23 -2 -13 9 -23 17 -23 18
0 2 10 2 23 1 14 0 23 -7 23 -17z m-394 -141 c-7 -7 -12 -8 -12 -2 0 14 12 26
19 19 2 -3 -1 -11 -7 -17z m256 -1 c13 3 21 -6 32 -34 8 -21 14 -41 15 -45 0
-3 4 -10 9 -15 5 -4 6 3 2 18 -4 19 -1 29 9 33 8 3 15 1 15 -5 0 -6 10 -9 23
-7 15 2 25 -4 32 -19 5 -13 13 -23 17 -23 5 0 8 -4 8 -10 0 -5 -7 -7 -15 -4
-11 4 -13 2 -9 -9 3 -8 1 -18 -5 -22 -6 -3 -11 1 -11 9 0 8 -5 18 -10 21 -7 4
-9 -2 -4 -19 5 -22 3 -26 -15 -26 -12 0 -21 6 -21 14 0 14 -17 15 -51 2 -9 -4
-23 2 -34 14 -10 11 -29 20 -42 20 -18 0 -23 5 -23 27 0 21 -3 24 -12 15 -17
-17 -24 -15 -25 7 -1 11 5 22 13 25 9 3 12 10 9 16 -3 5 -4 10 0 10 3 0 11
-12 17 -27 l11 -28 7 30 c4 17 8 24 9 18 0 -7 6 -13 12 -13 5 0 7 5 4 10 -3 6
-3 15 1 22 5 8 9 9 11 1 2 -6 12 -9 21 -6z m-148 -118 c0 -11 -4 -17 -10 -14
-5 3 -10 13 -10 21 0 8 5 14 10 14 6 0 10 -9 10 -21z m359 -8 c-12 -16 -27
-27 -35 -24 -9 3 -11 -2 -7 -16 6 -23 -6 -28 -24 -10 -13 13 6 39 26 39 6 0
11 6 11 14 0 14 14 24 38 25 8 1 5 -10 -9 -28z m-403 -30 c3 -9 8 -10 17 -3 6
5 19 9 27 9 8 0 20 2 25 4 6 2 10 0 10 -6 0 -5 -5 -9 -11 -7 -21 4 7 -56 28
-61 10 -3 29 3 42 14 24 19 24 19 19 -4 -4 -22 -4 -22 12 -2 11 12 15 14 13 5
-3 -8 4 -21 16 -28 14 -9 15 -12 4 -8 -10 3 -20 0 -24 -6 -4 -6 -3 -8 3 -5 5
3 20 -7 32 -23 12 -17 30 -30 40 -30 10 0 24 -6 30 -14 7 -8 22 -17 34 -20 26
-6 52 -42 37 -51 -6 -3 -10 1 -10 11 0 13 -3 14 -15 4 -8 -6 -19 -9 -25 -5 -5
3 -10 1 -10 -5 0 -6 -5 -8 -11 -5 -6 4 -8 14 -5 22 4 11 2 13 -9 9 -9 -3 -24
3 -35 14 -11 11 -26 17 -33 14 -8 -3 -21 1 -29 9 -8 8 -29 22 -47 32 -19 9
-44 29 -58 43 -13 14 -33 26 -46 28 -12 1 -26 3 -30 3 -5 1 -5 5 -2 11 3 5 1
18 -4 27 -6 10 -11 14 -11 8 0 -12 -20 16 -20 29 0 4 7 6 15 2 10 -3 15 1 16
12 1 17 1 16 15 -27z m117 25 c21 -16 23 -38 2 -30 -8 4 -15 12 -15 19 0 8 -8
16 -17 18 -13 3 -14 5 -3 6 8 0 23 -6 33 -13z m48 -3 c13 -15 12 -15 -8 -4
-24 12 -29 21 -14 21 5 0 15 -7 22 -17z m-314 -33 c3 -11 10 -20 15 -20 26 0
122 -55 154 -87 11 -13 29 -23 38 -23 9 0 16 -4 16 -10 0 -5 11 -10 25 -10 14
0 30 -9 37 -20 7 -11 19 -20 26 -20 7 0 11 -4 7 -9 -3 -5 3 -12 12 -14 14 -4
15 -5 2 -6 -8 0 -24 7 -34 17 -13 12 -29 16 -49 14 -19 -3 -32 1 -38 12 -5 9
-17 16 -28 16 -10 0 -25 6 -32 13 -25 25 -117 49 -103 27 3 -5 -1 -10 -9 -10
-9 0 -16 -4 -16 -10 0 -5 7 -10 15 -10 8 0 15 -9 15 -20 0 -14 -5 -18 -17 -13
-14 5 -16 3 -6 -7 15 -17 44 -5 37 15 -3 8 -1 15 5 15 6 0 13 -11 17 -25 3
-14 11 -22 17 -18 6 3 7 1 3 -5 -4 -7 -14 -12 -22 -12 -8 0 -14 -9 -14 -20 0
-11 7 -20 15 -20 10 0 15 -10 15 -26 0 -22 4 -25 21 -21 17 4 19 3 10 -6 -13
-13 -15 -41 -2 -33 5 3 22 -1 37 -9 16 -8 22 -15 15 -15 -12 0 -12 -3 -3 -12
7 -7 12 -18 12 -24 0 -14 -36 13 -85 64 -17 17 -37 32 -43 32 -7 0 -12 6 -12
13 0 8 -11 20 -25 27 -14 8 -23 20 -21 27 3 7 -1 13 -9 13 -8 0 -21 13 -30 29
-8 16 -20 35 -27 43 -13 14 -38 55 -38 62 0 2 8 2 18 -1 19 -4 19 -4 13 50 -2
15 -21 6 -21 -10 0 -13 -3 -14 -11 -6 -9 9 -8 16 4 27 9 9 19 16 24 16 5 0 15
9 23 20 8 11 21 20 28 20 8 0 16 -9 19 -20z m338 0 c3 -5 -1 -10 -9 -10 -9 0
-16 5 -16 10 0 6 4 10 9 10 6 0 13 -4 16 -10z m40 0 c3 -6 -1 -7 -9 -4 -18 7
-21 14 -7 14 6 0 13 -4 16 -10z m-562 -25 c-6 -17 -33 -8 -33 10 0 8 8 11 19
8 11 -3 17 -11 14 -18z m37 9 c0 -8 -5 -12 -10 -9 -6 4 -8 11 -5 16 9 14 15
11 15 -7z m410 -24 c0 -5 -7 -7 -15 -4 -8 4 -15 8 -15 10 0 2 7 4 15 4 8 0 15
-4 15 -10z m-409 -118 c27 -25 28 -29 14 -47 -15 -19 -15 -19 -9 10 l6 30 -26
-28 c-26 -26 -46 -28 -46 -6 0 6 4 7 10 4 11 -7 25 39 15 54 -12 20 6 11 36
-17z m-51 -3 c0 -5 -4 -9 -10 -9 -5 0 -10 7 -10 16 0 8 5 12 10 9 6 -3 10 -10
10 -16z m95 -69 c3 -5 1 -10 -4 -10 -6 0 -11 5 -11 10 0 6 2 10 4 10 3 0 8 -4
11 -10z m40 -18 c-3 -3 -11 0 -18 7 -9 10 -8 11 6 5 10 -3 15 -9 12 -12z m-15
-22 c0 -5 -2 -10 -4 -10 -3 0 -8 5 -11 10 -3 6 -1 10 4 10 6 0 11 -4 11 -10z
m60 -40 c0 -5 -2 -10 -4 -10 -3 0 -8 5 -11 10 -3 6 -1 10 4 10 6 0 11 -4 11
-10z m-150 -30 c0 -5 -5 -10 -11 -10 -5 0 -7 5 -4 10 3 6 8 10 11 10 2 0 4 -4
4 -10z m1613 -57 c-7 -2 -19 -2 -25 0 -7 3 -2 5 12 5 14 0 19 -2 13 -5z m-113
-23 c-20 -13 -43 -13 -35 0 3 6 16 10 28 10 18 0 19 -2 7 -10z m-1080 -10 c0
-5 -5 -10 -11 -10 -5 0 -7 5 -4 10 3 6 8 10 11 10 2 0 4 -4 4 -10z m1115 -74
c-17 -13 -25 -28 -21 -34 4 -7 1 -12 -6 -13 -9 0 -10 -2 -1 -5 7 -3 10 -11 7
-19 -3 -7 -1 -16 5 -19 11 -7 34 28 24 38 -3 3 -2 6 4 6 6 0 14 11 17 25 4 14
11 23 17 19 6 -3 8 -12 5 -20 -3 -8 -1 -14 5 -14 6 0 9 -7 6 -14 -4 -10 -1
-13 9 -9 18 7 9 -22 -16 -52 -20 -25 -26 -80 -9 -91 8 -4 10 -3 5 4 -8 13 35
34 72 34 12 0 25 4 28 9 3 5 12 9 21 9 13 0 13 -3 3 -15 -7 -9 -10 -25 -6 -41
4 -15 2 -33 -6 -42 -12 -15 -11 -16 4 -4 9 8 23 10 29 6 9 -5 7 -11 -6 -21
-11 -7 -14 -13 -8 -13 7 0 15 5 18 10 3 6 10 10 15 10 5 0 0 -16 -12 -36 -20
-35 -21 -37 -4 -50 11 -8 26 -10 39 -5 26 10 29 24 5 29 -10 2 -18 -1 -18 -7
0 -6 -8 -11 -17 -11 -15 0 -14 4 6 19 13 10 21 23 17 29 -3 6 -1 14 5 18 7 4
9 3 6 -3 -4 -5 2 -19 11 -29 10 -10 18 -32 19 -49 1 -20 -1 -24 -5 -13 -7 18
-35 10 -31 -8 5 -27 -2 -55 -13 -48 -7 4 -8 3 -4 -4 4 -7 14 -12 22 -12 8 0
12 -4 9 -10 -3 -5 -2 -10 3 -10 6 0 13 7 16 16 3 8 2 12 -4 9 -6 -3 -10 -1
-10 4 0 6 5 11 10 11 6 0 10 4 10 10 0 5 -8 7 -17 4 -13 -4 -15 -3 -5 4 7 5
24 7 38 4 22 -4 23 -6 10 -21 -9 -10 -13 -26 -9 -39 4 -16 1 -22 -11 -22 -11
0 -14 -5 -10 -12 5 -8 2 -9 -10 -5 -12 5 -16 3 -14 -5 3 -7 -1 -18 -8 -25 -16
-16 -28 -17 -18 -1 4 7 3 8 -4 4 -7 -4 -12 -14 -12 -22 0 -8 -7 -14 -15 -14
-8 0 -15 -4 -15 -9 0 -5 -8 -12 -17 -14 -11 -3 -7 -5 10 -6 16 0 26 3 23 7 -3
5 1 9 8 9 8 0 12 -6 9 -14 -3 -7 -11 -13 -19 -13 -8 0 -14 -4 -14 -10 0 -5 -8
-10 -17 -10 -15 0 -16 2 -3 10 12 8 10 10 -8 10 -15 0 -21 -4 -16 -11 5 -8 -1
-10 -20 -7 -14 3 -26 2 -26 -3 0 -12 93 -8 109 5 11 8 13 8 7 -1 -4 -7 -2 -13
3 -13 6 0 11 -5 11 -11 0 -6 -9 -8 -22 -4 -23 7 -23 7 -3 -8 11 -9 17 -19 12
-23 -4 -4 -7 -1 -7 7 0 11 -2 11 -10 -1 -6 -10 -10 -11 -10 -2 0 20 -16 14
-17 -8 -1 -11 2 -20 7 -20 6 0 6 -10 1 -22 -9 -26 -4 -51 10 -43 5 4 6 -1 3
-9 -7 -17 -39 -22 -48 -7 -3 5 -16 7 -28 3 -14 -3 -19 -2 -14 7 4 6 12 9 17 6
5 -4 9 -1 9 5 0 7 7 5 16 -4 27 -27 36 -17 14 14 -21 29 -50 41 -50 20 0 -5
-12 -10 -27 -11 -25 0 -26 -1 -8 -9 l20 -9 -20 0 c-17 -1 -17 -3 -5 -11 8 -5
11 -10 5 -10 -5 0 -3 -5 5 -10 11 -7 1 -10 -35 -11 -50 -2 -50 -2 -11 -8 l39
-6 -29 -15 c-37 -19 -55 -36 -47 -44 4 -3 -7 -6 -23 -6 -16 0 -24 4 -19 8 15
11 17 32 2 32 -22 0 -15 30 7 31 16 1 17 2 4 6 -18 5 -31 30 -22 44 3 5 0 9
-6 9 -7 0 -9 7 -6 16 3 8 2 12 -4 9 -5 -3 -8 4 -7 15 1 11 6 20 12 20 5 0 3 5
-5 10 -8 5 -11 10 -6 10 5 0 2 7 -5 17 -13 15 -11 16 16 11 27 -6 28 -5 10 8
-12 9 -14 14 -5 14 11 0 10 3 -2 13 -23 18 -30 47 -12 47 9 0 12 5 8 12 -5 8
-2 9 9 5 10 -3 17 -3 17 2 0 5 -9 11 -20 14 -11 3 -20 0 -20 -6 0 -7 -4 -6 -9
2 -6 9 -3 26 10 50 18 33 18 36 1 54 -16 19 -16 20 4 9 23 -12 31 -7 48 28 4
8 0 6 -8 -5 -16 -18 -17 -18 -34 -1 -9 9 -12 16 -7 15 6 -1 17 -1 25 0 13 1
13 3 1 10 -13 8 -13 12 0 27 12 15 12 17 0 9 -11 -6 -13 -4 -8 9 4 10 3 15 -3
11 -6 -3 -10 -1 -10 4 0 6 5 11 10 11 6 0 10 7 10 16 0 8 5 12 10 9 6 -3 10
-4 10 -1 0 2 3 12 7 22 4 11 3 15 -5 10 -7 -4 -10 5 -9 28 1 20 6 32 14 29 7
-3 10 7 9 27 -1 19 4 34 12 39 12 7 11 11 -8 21 -13 7 -20 8 -16 1 4 -5 -2
-15 -12 -20 -36 -19 -44 17 -11 50 12 12 18 27 14 38 -3 12 3 28 17 44 18 20
26 23 42 15 18 -10 17 -11 -9 -32z m95 -7 c0 -6 -4 -7 -10 -4 -5 3 -10 11 -10
16 0 6 5 7 10 4 6 -3 10 -11 10 -16z m45 -116 c8 -21 7 -23 -2 -23 -5 0 -8 3
-8 8 0 4 -4 13 -8 20 -5 6 -4 12 1 12 6 0 13 -8 17 -17z m-61 -5 c-6 -10 -4
-10 8 0 13 10 17 10 21 -1 3 -9 -5 -14 -24 -15 -28 -2 -37 7 -22 21 11 12 24
7 17 -5z m-172 -60 c-6 -6 -7 0 -4 19 5 21 7 23 10 9 2 -10 0 -22 -6 -28z
m298 17 c-7 -9 -15 -13 -19 -10 -3 3 1 10 9 15 21 14 24 12 10 -5z m-540 -5
c0 -5 -2 -10 -4 -10 -3 0 -8 5 -11 10 -3 6 -1 10 4 10 6 0 11 -4 11 -10z m30
-20 c0 -5 -2 -10 -4 -10 -3 0 -8 5 -11 10 -3 6 -1 10 4 10 6 0 11 -4 11 -10z
m517 -16 c9 -9 12 -19 7 -24 -5 -5 -14 1 -21 16 -13 28 -8 31 14 8z m-420
-119 c8 -22 -6 -33 -17 -15 -13 20 -12 30 0 30 6 0 13 -7 17 -15z m3 -54 c0
-7 -8 -20 -17 -28 -16 -13 -16 -14 -2 -10 13 4 18 -2 22 -26 2 -18 1 -33 -3
-35 -4 -2 -5 -12 -3 -23 5 -16 8 -18 14 -7 7 10 9 9 9 -4 0 -10 -5 -18 -11
-18 -5 0 -7 -4 -4 -10 9 -15 -18 -12 -40 4 -27 19 -28 66 -2 66 17 0 18 2 6
17 -12 14 -12 16 0 8 11 -6 10 -2 -2 15 -13 19 -14 27 -4 39 10 12 9 14 -5 8
-10 -3 -18 -2 -18 4 0 5 7 12 15 15 8 4 12 10 9 16 -3 5 3 4 15 -4 12 -7 21
-19 21 -27z m-430 -71 c0 -5 -8 -10 -17 -10 -15 0 -16 2 -3 10 19 12 20 12 20
0z m960 0 c0 -5 -5 -10 -11 -10 -5 0 -7 5 -4 10 3 6 8 10 11 10 2 0 4 -4 4
-10z m-690 -20 c0 -5 -7 -7 -15 -4 -8 4 -15 8 -15 10 0 2 7 4 15 4 8 0 15 -4
15 -10z m-295 -11 c4 -6 13 -8 21 -5 17 7 17 4 2 -29 -6 -14 -19 -25 -31 -25
-18 0 -19 -2 -5 -17 24 -29 30 -53 12 -53 -11 0 -15 -6 -12 -18 5 -18 1 -23
-37 -52 -18 -14 -19 -14 -7 2 11 14 10 19 -10 32 -12 9 -17 16 -10 16 6 0 12
5 12 10 0 6 -9 10 -20 10 -11 0 -20 3 -20 8 0 4 18 7 40 7 22 0 40 5 39 10 -1
6 -5 9 -10 8 -5 -2 -9 2 -9 8 0 5 -4 8 -9 4 -12 -7 -25 31 -15 46 4 8 9 7 15
-2 7 -11 9 -11 9 -1 0 7 4 11 8 8 5 -3 9 1 9 9 0 19 -12 19 -42 -1 -14 -9 -25
-12 -25 -6 0 14 22 29 50 35 14 2 28 5 32 6 4 0 10 -4 13 -10z m385 -23 c0 -2
-8 -10 -17 -17 -16 -13 -17 -12 -4 4 13 16 21 21 21 13z m-50 -21 c-7 -8 -8
-15 -4 -15 5 0 15 -14 22 -30 8 -18 18 -27 25 -23 7 3 1 -6 -13 -22 -14 -16
-18 -25 -10 -20 8 5 12 5 8 0 -4 -4 -3 -14 3 -22 9 -9 8 -13 0 -13 -6 0 -11 4
-11 8 0 5 -7 9 -15 9 -19 0 -19 -13 0 -21 8 -3 14 -11 13 -17 -2 -6 3 -14 11
-17 8 -3 11 0 7 7 -4 6 0 11 9 11 10 0 14 -5 9 -12 -6 -10 -4 -10 7 0 23 21
30 13 12 -15 -9 -16 -13 -25 -8 -21 4 4 14 3 22 -3 9 -9 13 -8 13 0 0 6 -5 11
-11 11 -6 0 -9 6 -6 13 2 6 13 11 23 9 14 -2 15 0 6 6 -14 10 -13 33 3 44 9 7
-7 11 -47 11 -24 0 -23 13 1 20 13 3 18 12 16 23 -2 11 -4 21 -4 24 -1 3 -6
-2 -12 -10 -9 -12 -10 -12 -5 4 4 13 2 17 -7 13 -8 -3 -19 -2 -26 3 -9 5 -7 9
8 13 12 3 23 1 26 -3 3 -5 20 -6 39 -3 25 4 35 1 39 -11 4 -9 1 -16 -5 -16 -7
0 -3 -7 8 -15 10 -8 14 -15 7 -15 -7 0 -24 12 -39 28 -15 15 -22 19 -15 10 7
-9 10 -27 7 -40 -3 -13 -3 -17 0 -10 16 35 61 -20 49 -59 -4 -11 -2 -19 3 -19
5 0 7 -13 4 -30 -2 -18 0 -30 7 -30 6 0 8 -7 4 -17 -5 -11 -3 -14 6 -8 10 6
11 3 2 -12 -7 -14 -7 -24 2 -33 8 -9 8 -11 1 -7 -14 8 -24 -15 -19 -43 2 -11
-1 -20 -6 -20 -6 0 -17 -7 -25 -15 -14 -13 -13 -15 3 -16 14 0 15 -2 3 -6 -8
-4 -21 -12 -28 -20 -11 -11 -11 -13 0 -13 8 0 20 6 27 13 10 10 11 9 6 -5 -4
-10 -15 -18 -24 -18 -14 0 -14 -2 -1 -10 13 -8 13 -10 -2 -10 -11 0 -15 -6
-11 -20 4 -15 0 -20 -13 -20 -14 0 -15 -3 -6 -8 15 -10 11 -44 -7 -66 -11 -13
-11 -16 0 -16 9 0 10 -3 3 -8 -6 -4 -10 -22 -8 -39 1 -18 -2 -33 -7 -33 -6 0
-7 -4 -4 -10 3 -5 -1 -10 -10 -10 -9 0 -13 4 -10 10 3 6 -1 7 -9 4 -9 -4 -18
1 -22 10 -3 9 -15 16 -25 16 -22 0 -25 13 -5 29 9 7 12 23 9 42 -4 28 -3 30
16 19 14 -7 21 -7 21 0 0 5 -8 10 -17 10 -15 0 -16 2 -3 10 9 6 10 10 3 10 -6
0 -18 -7 -27 -15 -18 -19 -26 -19 -26 -1 0 8 14 17 30 21 17 4 30 11 30 16 0
6 5 7 10 4 6 -3 10 -1 10 4 0 6 -9 11 -21 11 -11 0 -18 -4 -15 -9 4 -5 -7 -4
-24 2 -20 8 -25 14 -17 19 7 4 -4 5 -23 2 l-35 -5 24 20 c23 21 23 21 2 21
-19 0 -20 3 -11 20 8 15 17 19 33 15 18 -5 19 -4 7 5 -11 9 -12 13 -2 17 19 8
42 33 41 46 0 9 -2 8 -6 0 -2 -7 -11 -13 -19 -13 -9 0 -13 -4 -9 -9 3 -6 -4
-9 -15 -8 -23 1 -23 2 -10 28 12 21 1 26 -18 7 -7 -7 -12 -9 -12 -4 0 11 27
36 38 36 6 0 13 -6 16 -12 3 -7 4 -4 3 7 -2 16 3 20 23 18 21 -1 20 1 -10 14
-29 14 -32 17 -15 21 11 2 26 9 34 16 12 9 14 8 9 -6 -4 -9 -1 -19 7 -22 11
-4 12 0 5 19 -10 26 4 34 26 18 5 -5 1 0 -9 9 -11 10 -24 15 -31 11 -19 -12
-46 -13 -46 -2 0 5 -5 7 -12 3 -7 -5 -8 -3 -4 5 5 7 15 10 23 7 10 -4 13 -2
10 8 -3 8 -1 17 6 20 7 2 4 5 -6 5 -10 1 -16 5 -12 10 3 6 -2 14 -11 19 -16 9
-15 11 3 20 14 8 19 20 18 37 -2 16 2 25 10 25 9 0 12 8 10 21 -7 33 -12 33
-30 2 l-16 -28 6 30 c4 16 7 34 8 40 3 13 19 25 36 25 11 0 11 -3 1 -15z
m-425 -15 c-3 -5 -1 -10 6 -10 7 0 9 -3 6 -7 -4 -3 1 -12 11 -19 16 -13 16
-13 -1 -14 -10 0 -22 11 -27 26 -12 32 -12 34 1 34 5 0 7 -4 4 -10z m480 0
c-3 -5 -11 -10 -16 -10 -6 0 -7 5 -4 10 3 6 11 10 16 10 6 0 7 -4 4 -10z
m-321 -42 c-9 -15 -22 -8 -19 10 2 9 4 19 4 22 1 3 5 -2 10 -10 6 -8 7 -18 5
-22z m31 5 c-2 -16 -4 -40 -4 -55 -1 -20 -5 -26 -16 -22 -9 4 -15 0 -15 -9 0
-17 -34 -32 -50 -22 -17 10 -11 21 18 32 l27 12 -28 -4 c-15 -2 -25 0 -22 5 3
4 2 10 -2 13 -5 2 -2 2 5 1 7 -2 15 3 18 11 4 8 15 15 25 15 10 0 20 5 20 10
1 6 3 15 4 20 1 6 3 12 4 15 0 3 5 5 10 5 5 0 8 -12 6 -27z m832 -75 c-3 -8
-6 -5 -6 6 -1 11 2 17 5 13 3 -3 4 -12 1 -19z m-1113 -19 c-3 -5 -10 -7 -15
-4 -5 4 -9 -4 -10 -17 0 -15 -3 -18 -6 -8 -3 8 -11 18 -17 22 -7 5 -4 8 7 8 9
0 17 4 17 10 0 5 7 7 15 4 8 -4 12 -10 9 -15z m68 -1 c-7 -7 -12 -8 -12 -2 0
14 12 26 19 19 2 -3 -1 -11 -7 -17z m48 18 c0 -2 -7 -9 -15 -16 -13 -11 -14
-10 -9 4 5 14 24 23 24 12z m486 -18 c3 -4 -1 -5 -10 -4 -8 1 -18 5 -22 8 -3
4 1 5 10 4 8 -1 18 -5 22 -8z m-432 -15 c-19 -6 -4 -43 18 -43 17 0 16 -3 -9
-26 -26 -23 -26 -25 -5 -19 13 4 22 2 22 -4 0 -6 -4 -10 -9 -8 -5 1 -17 -7
-26 -18 -16 -19 -16 -19 -10 -1 3 11 0 23 -7 28 -10 6 -10 10 2 19 13 9 13 10
0 6 -10 -3 -14 -14 -12 -35 2 -19 -1 -32 -8 -32 -6 0 -8 4 -5 10 3 6 -1 7 -9
4 -19 -7 -21 7 -4 24 9 9 7 16 -7 32 -18 20 -18 21 -1 38 17 16 18 16 7 -5 -7
-13 -7 -24 -2 -28 5 -3 13 5 16 17 8 25 46 60 55 51 3 -3 0 -8 -6 -10z m-218
-22 c0 -15 -3 -17 -13 -9 -7 6 -13 14 -13 19 0 5 6 9 13 9 7 0 13 -9 13 -19z
m314 -8 c0 -8 4 -11 10 -8 6 4 7 -1 3 -11 -6 -16 -7 -15 -20 1 -7 10 -16 15
-20 10 -5 -4 -2 -10 5 -12 17 -6 15 -33 -3 -33 -8 0 -15 5 -15 11 0 5 -6 7
-12 3 -10 -6 -10 -5 -1 8 15 18 8 28 -21 29 -14 0 -10 4 14 13 40 14 60 10 60
-11z m773 -8 c-3 -9 -8 -14 -10 -11 -3 3 -2 9 2 15 9 16 15 13 8 -4z m-773
-70 c0 -21 -13 -25 -25 -8 -9 13 -14 13 -20 3 -5 -9 -4 -11 3 -6 7 4 12 2 12
-4 0 -6 6 -17 13 -25 8 -7 13 -24 11 -37 -1 -12 -3 -29 -3 -35 -1 -7 -5 -13
-10 -13 -5 0 -6 10 -3 23 6 22 5 22 -14 3 -10 -10 -27 -31 -36 -45 -10 -14
-18 -20 -18 -13 0 6 -8 12 -17 12 -14 0 -12 -5 8 -27 l24 -28 -27 24 c-16 14
-26 27 -23 29 3 3 -3 11 -13 19 -15 13 -15 13 5 4 14 -7 24 -8 28 -1 3 5 -1
10 -9 10 -9 0 -16 4 -16 10 0 6 10 5 25 -2 31 -14 36 -9 37 32 1 17 7 34 15
37 11 4 11 8 1 20 -9 11 -9 16 2 23 19 12 50 8 50 -5z m713 -2 c-7 -2 -19 -2
-25 0 -7 3 -2 5 12 5 14 0 19 -2 13 -5z m-817 -57 c-10 -16 -22 -23 -31 -20
-24 10 -17 26 8 18 12 -3 19 -3 15 1 -4 5 -3 14 4 22 18 22 22 6 4 -21z m677
-39 c-3 -5 -11 -6 -19 -3 -8 3 -11 0 -7 -10 3 -7 1 -14 -5 -14 -5 0 -12 9 -15
20 -4 16 0 19 23 17 15 -1 26 -6 23 -10z m-586 -77 c-1 -12 -10 -28 -22 -38
-11 -9 -14 -10 -7 -2 19 22 14 48 -10 53 -17 3 -15 5 9 6 26 1 31 -3 30 -19z
m-27 -10 c0 -5 -2 -10 -4 -10 -3 0 -8 5 -11 10 -3 6 -1 10 4 10 6 0 11 -4 11
-10z m226 -80 c0 -12 -4 -16 -9 -11 -5 5 -6 14 -3 20 10 15 12 14 12 -9z m39
0 c3 -5 2 -10 -4 -10 -5 0 -13 5 -16 10 -3 6 -2 10 4 10 5 0 13 -4 16 -10z
m-25 -34 c0 -2 -7 -6 -15 -10 -8 -3 -15 -1 -15 4 0 6 7 10 15 10 8 0 15 -2 15
-4z m30 -42 c0 -8 -8 -14 -17 -14 -15 0 -16 2 -3 10 12 8 10 10 -10 10 -19 0
-21 3 -11 9 18 12 41 3 41 -15z"/>
<path d="M11687 2294 c3 -7 9 -14 14 -14 14 0 10 17 -5 23 -10 4 -13 1 -9 -9z"/>
<path d="M11728 2268 c5 -21 4 -22 -12 -9 -22 18 -28 11 -10 -13 15 -22 28
-15 39 22 4 16 2 22 -8 22 -11 0 -13 -7 -9 -22z"/>
<path d="M11634 2255 c11 -8 22 -12 25 -9 6 6 -19 24 -34 24 -5 -1 -1 -7 9
-15z"/>
<path d="M11820 2245 c-7 -8 -18 -15 -24 -14 -6 1 -22 1 -36 0 -18 -1 -21 -4
-11 -10 8 -5 10 -14 6 -22 -5 -8 -4 -11 0 -6 5 4 19 -3 32 -15 19 -18 23 -19
23 -5 0 9 5 17 10 17 6 0 10 5 10 10 0 6 -3 9 -7 9 -23 -4 -23 4 1 26 15 14
23 25 18 25 -5 0 -15 -7 -22 -15z"/>
<path d="M11672 2214 c-14 -15 -7 -17 22 -5 15 6 16 9 5 13 -8 3 -20 -1 -27
-8z"/>
<path d="M11638 2173 c7 -3 16 -2 19 1 4 3 -2 6 -13 5 -11 0 -14 -3 -6 -6z"/>
<path d="M11355 2000 c5 -8 8 -28 7 -44 -2 -24 0 -27 12 -17 16 14 11 45 -12
63 -13 11 -14 11 -7 -2z"/>
<path d="M11460 1970 c0 -5 5 -10 10 -10 6 0 10 5 10 10 0 6 -4 10 -10 10 -5
0 -10 -4 -10 -10z"/>
<path d="M10965 1860 c-19 -7 -19 -7 2 -18 17 -9 24 -8 34 5 8 9 9 14 2 10 -6
-4 -13 -3 -15 2 -1 4 -12 5 -23 1z"/>
<path d="M12371 1194 c0 -11 3 -14 6 -6 3 7 2 16 -1 19 -3 4 -6 -2 -5 -13z"/>
<path d="M12510 1196 c0 -8 4 -17 9 -21 6 -3 9 4 8 15 -1 23 -17 28 -17 6z"/>
<path d="M12475 1100 c-3 -5 1 -10 10 -10 9 0 13 5 10 10 -3 6 -8 10 -10 10
-2 0 -7 -4 -10 -10z"/>
<path d="M12537 1093 c-11 -10 -8 -45 3 -38 6 4 8 10 5 15 -3 5 3 13 12 19 15
9 15 10 2 11 -9 0 -19 -3 -22 -7z"/>
<path d="M12436 1065 c-11 -8 -15 -15 -9 -15 6 0 16 7 23 15 16 19 11 19 -14
0z"/>
<path d="M12550 1026 c0 -2 7 -7 16 -10 8 -3 12 -2 9 4 -6 10 -25 14 -25 6z"/>
<path d="M12535 959 c-4 -6 -5 -12 -2 -15 2 -3 7 2 10 11 7 17 1 20 -8 4z"/>
<path d="M12567 959 c7 -9 10 -19 6 -22 -3 -4 1 -7 11 -7 9 0 14 -4 11 -10 -3
-5 -1 -10 4 -10 20 0 11 25 -17 45 -17 12 -22 13 -15 4z"/>
<path d="M12305 919 c-4 -6 -5 -12 -2 -15 2 -3 7 2 10 11 7 17 1 20 -8 4z"/>
<path d="M12546 922 c-3 -5 1 -9 9 -9 8 0 12 4 9 9 -3 4 -7 8 -9 8 -2 0 -6 -4
-9 -8z"/>
<path d="M12276 883 c-6 -14 -5 -15 5 -6 7 7 10 15 7 18 -3 3 -9 -2 -12 -12z"/>
<path d="M12398 893 c7 -3 16 -2 19 1 4 3 -2 6 -13 5 -11 0 -14 -3 -6 -6z"/>
<path d="M12523 893 c15 -2 39 -2 55 0 15 2 2 4 -28 4 -30 0 -43 -2 -27 -4z"/>
<path d="M12477 879 c7 -7 15 -10 18 -7 3 3 -2 9 -12 12 -14 6 -15 5 -6 -5z"/>
<path d="M12455 860 c-4 -6 3 -10 14 -10 25 0 27 6 6 13 -8 4 -17 2 -20 -3z"/>
<path d="M12443 833 c9 -2 23 -2 30 0 6 3 -1 5 -18 5 -16 0 -22 -2 -12 -5z"/>
<path d="M12388 823 c6 -2 10 -9 6 -14 -3 -5 0 -9 5 -9 6 0 11 5 11 11 0 5 5
7 12 3 7 -4 8 -3 4 4 -4 7 -17 12 -29 11 -12 0 -16 -3 -9 -6z"/>
<path d="M12290 805 c0 -10 9 -15 27 -15 29 0 29 2 -4 19 -19 10 -23 9 -23 -4z"/>
<path d="M12458 813 c7 -3 16 -2 19 1 4 3 -2 6 -13 5 -11 0 -14 -3 -6 -6z"/>
<path d="M12365 780 c28 -12 37 -12 30 0 -3 6 -16 10 -28 9 -21 0 -21 -1 -2
-9z"/>
<path d="M12328 768 c6 -6 18 -8 28 -6 14 3 12 5 -9 10 -19 3 -25 2 -19 -4z"/>
<path d="M12420 750 c20 -13 33 -13 25 0 -3 6 -14 10 -23 10 -15 0 -15 -2 -2
-10z"/>
<path d="M12484 741 c9 -14 -15 -19 -46 -10 -30 8 -40 -5 -26 -36 8 -18 8 -18
4 3 -3 18 0 22 22 21 17 -1 21 -3 10 -6 -30 -8 5 -33 46 -33 27 0 34 3 30 15
-4 8 -10 15 -16 15 -5 0 -6 -4 -3 -10 4 -6 -5 -10 -22 -9 -19 1 -22 3 -9 6 15
4 16 7 5 14 -11 7 -11 9 4 9 9 0 17 4 17 9 0 5 8 12 18 14 10 3 6 5 -11 6 -16
0 -26 -3 -23 -8z"/>
<path d="M12308 723 c6 -2 18 -2 25 0 6 3 1 5 -13 5 -14 0 -19 -2 -12 -5z"/>
<path d="M12376 705 c-3 -8 -1 -15 4 -15 6 0 10 7 10 15 0 8 -2 15 -4 15 -2 0
-6 -7 -10 -15z"/>
<path d="M12330 670 c0 -5 7 -7 15 -4 8 4 15 8 15 10 0 2 -7 4 -15 4 -8 0 -15
-4 -15 -10z"/>
<path d="M12376 653 c-6 -14 -5 -15 5 -6 7 7 10 15 7 18 -3 3 -9 -2 -12 -12z"/>
<path d="M12423 663 c9 -2 23 -2 30 0 6 3 -1 5 -18 5 -16 0 -22 -2 -12 -5z"/>
<path d="M12338 563 c12 -2 30 -2 40 0 9 3 -1 5 -23 4 -22 0 -30 -2 -17 -4z"/>
<path d="M12113 613 c14 -15 15 -19 2 -33 -12 -14 -12 -17 6 -29 12 -7 18 -8
15 -2 -4 5 -1 15 7 22 11 10 9 17 -9 36 -12 13 -25 23 -30 23 -4 0 -1 -8 9
-17z"/>
<path d="M12168 553 c7 -3 16 -2 19 1 4 3 -2 6 -13 5 -11 0 -14 -3 -6 -6z"/>
<path d="M12071 510 c0 -8 4 -22 9 -30 12 -18 12 -2 0 25 -6 13 -9 15 -9 5z"/>
<path d="M12036 424 c-4 -11 -14 -15 -31 -12 -30 6 -34 -8 -5 -17 11 -4 18
-11 14 -16 -4 -7 8 -8 33 -3 32 6 36 5 26 -7 -10 -12 -8 -15 10 -16 12 0 16 1
9 4 -6 3 -10 9 -6 14 3 5 -8 14 -25 20 -17 6 -28 15 -25 21 4 6 10 6 17 -1 6
-6 16 -11 22 -11 5 0 2 5 -8 11 -9 6 -15 14 -12 20 4 5 2 9 -3 9 -6 0 -13 -7
-16 -16z"/>
<path d="M12030 350 c0 -5 5 -10 11 -10 5 0 7 5 4 10 -3 6 -8 10 -11 10 -2 0
-4 -4 -4 -10z"/>
<path d="M12098 263 c7 -3 16 -2 19 1 4 3 -2 6 -13 5 -11 0 -14 -3 -6 -6z"/>
<path d="M12038 193 c7 -3 16 -2 19 1 4 3 -2 6 -13 5 -11 0 -14 -3 -6 -6z"/>
<path d="M12090 179 c0 -5 5 -7 10 -4 6 3 10 8 10 11 0 2 -4 4 -10 4 -5 0 -10
-5 -10 -11z"/>
<path d="M11667 656 c-4 -10 -1 -13 8 -9 8 3 12 9 9 14 -7 12 -11 11 -17 -5z"/>
<path d="M15763 6220 c137 -96 339 -262 457 -376 92 -90 96 -106 24 -117 -47
-8 -64 0 -64 29 0 24 -41 87 -100 153 -16 19 -30 38 -30 43 0 4 -4 8 -10 8
-19 0 -10 -20 25 -59 36 -40 55 -85 55 -132 0 -15 -28 -70 -66 -130 -37 -57
-87 -141 -113 -187 -65 -117 -66 -118 -78 -133 -11 -14 -98 -185 -166 -329
-58 -121 -117 -354 -117 -461 0 -58 -20 -140 -36 -146 -8 -3 -14 -13 -14 -22
0 -14 -2 -14 -10 -1 -7 11 -9 8 -8 -15 1 -34 -7 -94 -20 -145 -19 -78 0 -200
31 -200 21 0 302 -235 305 -255 6 -30 21 -45 227 -214 297 -245 317 -260 355
-268 25 -4 93 -53 245 -178 115 -94 241 -196 280 -227 l69 -56 61 66 61 65 29
-18 c17 -10 41 -29 55 -42 23 -20 30 -21 60 -13 49 14 50 14 50 -22 0 -34 -39
-241 -59 -315 -12 -45 -15 -47 -116 -57 -22 -2 -53 -7 -70 -10 -72 -14 -199
-28 -245 -27 -30 0 -140 -21 -140 -28 0 -4 -12 -8 -27 -9 -14 -1 -35 -9 -45
-19 -10 -9 -18 -13 -18 -10 0 3 -19 0 -41 -8 -56 -20 -208 -20 -256 0 -48 20
-56 19 -42 -7 24 -45 56 -66 120 -79 158 -31 288 -52 317 -52 37 -1 36 1 18
-59 l-13 -46 61 6 c33 3 62 8 64 12 1 4 13 5 26 3 13 -3 27 0 30 6 4 6 22 11
40 11 19 0 53 7 77 16 24 8 73 18 108 21 63 6 63 6 56 -18 -17 -59 -101 -261
-136 -330 -38 -73 -41 -75 -74 -75 -22 1 -35 6 -35 14 0 8 -5 10 -12 6 -19
-12 -59 -11 -54 2 3 7 -13 10 -49 9 -30 -1 -53 3 -52 8 1 5 -14 10 -33 12 -50
4 -70 34 -70 106 0 33 7 76 15 96 8 20 14 37 13 38 -2 2 -95 19 -208 39 -113
21 -227 42 -253 48 -26 5 -51 8 -54 5 -3 -3 11 -9 31 -12 39 -8 71 -35 48 -43
-9 -3 -7 -9 9 -22 11 -11 18 -23 15 -29 -4 -5 -2 -12 4 -16 6 -4 8 -11 5 -16
-3 -5 2 -6 11 -2 12 4 15 3 10 -5 -4 -7 -22 -12 -39 -13 -38 -1 73 -27 281
-65 84 -15 93 -19 90 -38 -2 -11 -15 -27 -30 -34 -27 -12 -65 -8 -228 25 -14
2 -21 1 -15 -4 6 -4 22 -30 35 -56 42 -82 58 -88 264 -107 149 -13 189 -20
226 -39 25 -13 46 -25 48 -26 6 -5 -122 -212 -227 -366 -338 -496 -820 -924
-1341 -1193 l-165 -86 90 0 90 0 110 61 c480 265 926 661 1252 1112 69 94 88
115 99 106 17 -14 18 -39 2 -39 -7 -1 -2 -7 11 -14 16 -9 20 -16 12 -20 -15
-10 -4 -26 17 -25 14 0 13 2 -3 9 -18 8 -17 9 7 9 19 1 26 -3 22 -13 -4 -10 2
-12 20 -9 19 4 26 1 26 -10 0 -9 13 -17 35 -21 19 -4 38 -12 42 -19 5 -7 21
-21 36 -30 l28 -18 -83 -65 c-46 -36 -365 -278 -710 -537 l-627 -472 321 -3
322 -2 40 26 c138 91 380 291 521 430 433 427 747 930 931 1492 38 114 41 137
20 129 -8 -3 -17 -1 -19 6 -3 8 -10 7 -24 -6 -11 -9 -22 -14 -26 -11 -3 4 -12
-6 -19 -20 -15 -34 -56 -56 -105 -56 -21 0 -46 -7 -56 -15 -11 -7 -26 -11 -35
-8 -9 4 -13 2 -9 -4 4 -6 -6 -19 -21 -29 -45 -29 -96 -90 -126 -149 -34 -68
-53 -79 -123 -72 -41 4 -60 12 -78 31 -16 17 -35 26 -55 26 -16 0 -30 2 -30 5
0 2 24 64 54 137 29 73 72 190 95 259 23 70 51 135 62 145 10 9 19 24 19 33 1
27 34 59 65 63 l30 4 -42 18 c-24 10 -43 21 -43 25 0 3 7 38 15 76 8 39 21
122 30 185 23 166 22 163 48 156 12 -3 72 -15 132 -26 221 -41 271 -52 344
-71 40 -11 76 -17 79 -14 3 3 8 143 10 310 4 287 -4 456 -28 590 -5 28 -16 97
-25 155 -16 100 -44 228 -66 298 -13 38 -28 40 -90 10 -30 -14 -65 -22 -109
-23 -36 -1 -72 -5 -78 -9 -7 -4 -25 -4 -40 0 -15 4 -52 8 -82 9 -87 4 -160 29
-160 56 0 5 7 9 15 9 11 0 10 7 -6 35 -29 48 -10 44 40 -10 46 -49 56 -53 65
-29 6 16 -28 53 -50 54 -6 0 -18 10 -26 21 -8 13 -24 21 -39 22 -25 0 -29 9
-78 150 -28 82 -49 152 -47 154 6 7 92 -61 127 -101 25 -29 38 -36 58 -33 33
5 74 -9 66 -23 -11 -18 13 -36 45 -34 16 1 30 -2 30 -7 0 -5 11 -9 24 -9 14 0
38 -13 54 -30 31 -31 54 -42 32 -15 -19 23 -4 30 33 18 17 -6 60 -14 95 -18
l63 -7 -7 28 c-40 165 -262 641 -339 727 -26 29 -29 30 -33 12 -6 -31 -19 -40
-36 -25 -9 7 -23 10 -31 6 -9 -3 -13 -2 -10 4 6 9 -33 35 -41 27 -3 -3 4 -21
16 -41 28 -51 26 -52 -20 -16 -22 17 -48 30 -58 28 -10 -1 -33 9 -51 25 -18
15 -45 27 -60 27 -30 0 -114 40 -147 71 -11 10 -32 19 -46 19 -14 0 -28 7 -32
15 -7 19 -48 35 -61 25 -17 -14 -46 18 -133 140 -45 63 -114 153 -153 200
l-70 84 38 14 c25 9 43 10 54 4 11 -7 19 -5 27 8 10 16 15 17 42 7 27 -10 33
-10 41 6 9 15 13 16 39 2 19 -10 31 -11 35 -4 5 7 11 6 21 -2 12 -9 13 -9 9 3
-5 12 0 14 20 10 15 -2 29 -11 32 -18 3 -8 9 -12 14 -9 4 3 6 11 3 19 -7 17
38 36 59 25 12 -7 15 -5 14 12 -3 40 -434 428 -459 413 -4 -3 -8 -12 -8 -20 0
-16 -37 -72 -60 -90 -8 -7 -21 -9 -30 -6 -8 3 -12 2 -8 -3 4 -4 -8 -38 -27
-74 -19 -37 -35 -73 -35 -79 0 -23 -19 -11 -102 66 -125 115 -191 170 -320
265 l-116 87 -73 0 -72 0 116 -80z m753 -707 c-7 -7 -26 7 -26 19 0 6 6 6 15
-2 9 -7 13 -15 11 -17z m32 -54 c-8 -5 -16 -2 -20 9 -12 30 -8 35 12 17 16
-14 17 -20 8 -26z m12 -29 c0 -5 -2 -10 -4 -10 -3 0 -8 5 -11 10 -3 6 -1 10 4
10 6 0 11 -4 11 -10z m70 -62 c0 -16 -16 -7 -30 15 -30 45 -30 61 -1 27 17
-19 30 -38 31 -42z m48 -73 c-3 -3 -9 2 -12 12 -6 14 -5 15 5 6 7 -7 10 -15 7
-18z m78 -177 c35 -37 85 -102 182 -239 12 -18 22 -44 22 -58 0 -14 7 -37 15
-51 8 -14 19 -35 24 -47 6 -13 15 -23 20 -23 23 0 163 -342 146 -358 -3 -3
-20 2 -37 12 -17 11 -28 14 -24 7 4 -6 3 -11 -3 -11 -5 0 -14 6 -18 13 -4 7
-19 18 -33 25 -14 7 -55 32 -91 55 -36 23 -81 52 -100 63 -46 29 -151 118
-212 179 -99 99 -147 181 -147 248 0 29 1 30 14 12 13 -18 15 -17 27 23 6 23
16 42 21 42 20 0 138 117 138 138 0 21 15 13 56 -30z m250 28 c10 -8 16 -17
12 -21 -8 -8 -48 13 -48 25 0 14 13 12 36 -4z m-717 -45 c8 -4 21 -20 30 -37
25 -45 51 -84 103 -151 26 -33 54 -77 62 -97 9 -21 26 -40 40 -46 16 -6 33
-27 46 -55 14 -31 26 -45 35 -41 8 3 21 -7 31 -22 9 -15 27 -36 39 -47 71 -65
102 -97 120 -122 l19 -27 6 23 c5 22 8 19 45 -30 22 -30 49 -55 59 -57 22 -5
37 -18 54 -47 10 -18 11 -16 12 15 1 34 1 34 13 12 7 -12 16 -20 20 -16 4 4
12 -7 18 -24 6 -18 15 -32 20 -32 5 0 9 -7 9 -15 0 -9 6 -12 16 -8 10 3 30 -8
56 -33 34 -33 40 -36 35 -16 -9 37 20 26 33 -14 7 -19 10 -37 8 -40 -3 -2 -41
14 -86 36 -44 22 -84 40 -89 40 -4 0 -21 14 -36 30 -16 17 -36 30 -46 30 -9 0
-34 12 -56 27 -22 15 -53 35 -70 44 -93 50 -120 67 -153 94 -21 17 -63 48 -94
69 -32 22 -65 50 -73 63 -9 13 -30 32 -47 42 -26 16 -80 73 -172 181 -53 63
-84 107 -89 130 -3 14 -11 44 -17 66 -10 35 -9 48 5 78 l17 36 32 -17 c17 -8
37 -19 45 -22z m343 -824 c42 -23 101 -65 130 -93 29 -27 73 -64 98 -81 25
-17 59 -45 75 -63 17 -17 54 -43 82 -56 29 -14 55 -29 58 -33 2 -5 25 -12 50
-15 24 -4 47 -11 50 -17 4 -5 13 -9 22 -9 9 0 25 -8 35 -17 18 -16 18 -16 12
0 -4 13 -1 17 14 17 26 0 28 -4 37 -64 l8 -49 -31 6 c-18 4 -34 2 -38 -4 -3
-6 0 -10 7 -8 43 5 69 -2 69 -20 0 -17 -3 -17 -50 -5 -28 7 -55 16 -60 19 -22
14 -51 13 -57 0 -3 -8 -9 -15 -15 -15 -5 0 -7 4 -4 9 10 15 -23 21 -52 9 -15
-6 -31 -10 -37 -8 -5 1 -18 4 -27 4 -10 1 -25 9 -35 18 -10 8 -37 18 -61 21
-23 3 -60 15 -82 26 -47 24 -82 28 -74 7 6 -17 70 -46 107 -48 15 -1 27 -6 27
-10 0 -4 3 -7 8 -7 21 4 42 -2 42 -11 0 -6 -12 -8 -27 -5 -16 3 -43 8 -61 10
-42 5 -211 86 -236 114 -11 12 -27 21 -37 21 -30 0 -40 34 -44 153 -2 61 -5
121 -7 132 -2 14 3 21 20 23 27 4 28 19 2 52 -42 54 -19 53 82 -3z m528 3 c0
-5 -2 -10 -4 -10 -3 0 -8 5 -11 10 -3 6 -1 10 4 10 6 0 11 -4 11 -10z m310
-433 c0 -5 9 -5 21 -2 15 5 29 0 47 -18 15 -14 38 -27 52 -29 23 -4 23 -5 5
-12 -11 -4 -28 -11 -37 -16 -19 -10 -116 3 -148 20 -16 9 -21 19 -18 43 1 18
7 35 11 38 11 8 67 -12 67 -24z m-865 1 c14 -6 25 -15 25 -20 0 -13 -10 -10
-37 12 -29 23 -25 25 12 8z m815 -88 c0 -5 -4 -10 -10 -10 -5 0 -10 5 -10 10
0 6 5 10 10 10 6 0 10 -4 10 -10z m150 -280 c0 -5 -2 -10 -4 -10 -3 0 -8 5
-11 10 -3 6 -1 10 4 10 6 0 11 -4 11 -10z m-62 -17 c6 -19 -25 -16 -32 3 -4
11 -1 14 11 12 9 -2 18 -9 21 -15z m22 -34 c-15 -11 -34 -17 -47 -14 -12 3
-24 -1 -27 -8 -3 -6 -4 -3 -3 8 2 14 9 19 26 17 12 -1 32 5 44 13 30 21 36 7
7 -16z m85 11 c3 -5 1 -10 -4 -10 -6 0 -11 5 -11 10 0 6 2 10 4 10 3 0 8 -4
11 -10z m-654 -1068 c-12 -22 -61 -72 -72 -72 -9 0 -49 49 -49 60 0 8 71 27
108 29 19 1 21 -2 13 -17z m-134 -588 c-3 -3 -12 -4 -19 -1 -8 3 -5 6 6 6 11
1 17 -2 13 -5z m516 -224 c46 0 56 -11 62 -62 4 -43 2 -47 -25 -58 -45 -18
-124 5 -174 52 -17 15 -17 18 -3 13 13 -6 17 -2 17 19 0 21 5 26 24 26 14 0
28 5 31 11 4 6 14 8 22 5 8 -3 29 -6 46 -6z"/>
<path d="M16719 4864 c-5 -15 -12 -31 -15 -35 -9 -14 42 -28 72 -20 23 6 25 9
11 14 -21 8 -22 27 -2 27 18 0 19 12 3 28 -22 22 -58 14 -69 -14z"/>
<path d="M16680 4812 c0 -5 7 -13 16 -16 10 -4 14 -1 12 6 -5 15 -28 23 -28
10z"/>
<path d="M16585 4220 c-3 -5 -1 -10 4 -10 6 0 11 5 11 10 0 6 -2 10 -4 10 -3
0 -8 -4 -11 -10z"/>
<path d="M16910 3991 c0 -5 7 -12 16 -15 14 -5 15 -4 4 9 -14 17 -20 19 -20 6z"/>
<path d="M16990 3961 c0 -6 22 -21 49 -34 57 -29 117 -45 107 -28 -4 6 -13 11
-21 11 -8 0 -34 14 -58 30 -45 30 -77 39 -77 21z"/>
<path d="M17170 3870 c0 -5 5 -10 11 -10 5 0 7 5 4 10 -3 6 -8 10 -11 10 -2 0
-4 -4 -4 -10z"/>
<path d="M15917 6043 c8 -25 24 -43 35 -43 5 0 1 14 -9 30 -19 33 -36 41 -26
13z"/>
<path d="M16900 5694 c0 -9 28 -34 38 -34 5 0 12 -9 15 -20 3 -11 12 -20 21
-20 23 0 20 8 -17 43 -32 30 -57 44 -57 31z"/>
<path d="M16990 5683 c0 -5 12 -13 26 -20 26 -12 26 -12 9 7 -18 20 -35 26
-35 13z"/>
<path d="M16836 5662 c-3 -5 5 -18 17 -29 32 -29 67 -72 67 -82 0 -12 23 -9
29 3 6 12 -80 115 -96 115 -6 1 -14 -3 -17 -7z"/>
<path d="M17015 5600 c3 -5 10 -10 16 -10 5 0 9 5 9 10 0 6 -7 10 -16 10 -8 0
-12 -4 -9 -10z"/>
<path d="M3801 5472 c-50 -25 -74 -63 -78 -124 -5 -69 19 -114 78 -146 24 -13
43 -29 41 -36 -1 -8 8 -17 20 -21 23 -7 23 -7 -4 -18 -16 -6 -28 -17 -28 -25
0 -18 60 -6 78 16 16 21 15 27 -4 47 -9 9 -15 17 -13 18 2 2 21 10 42 20 32
14 77 66 77 90 0 4 -14 7 -31 7 -21 0 -37 -8 -50 -24 -52 -67 -149 -21 -149
70 0 15 12 38 29 55 40 40 83 39 121 -1 17 -18 38 -30 54 -30 32 0 32 8 3 51
-26 39 -79 69 -122 69 -16 0 -45 -8 -64 -18z"/>
<path d="M4614 5481 c-28 -12 -54 -49 -54 -77 0 -37 37 -72 96 -89 60 -17 78
-40 49 -61 -26 -20 -52 -17 -72 6 -21 24 -73 27 -73 4 0 -8 13 -29 29 -45 25
-25 37 -29 84 -29 68 0 107 30 107 82 0 47 -21 72 -72 87 -65 19 -92 39 -77
57 15 18 53 18 69 -1 18 -22 70 -20 70 3 0 48 -99 87 -156 63z"/>
<path d="M5691 5472 c-19 -9 -43 -29 -54 -44 -28 -38 -34 -116 -12 -161 47
-99 199 -107 255 -14 26 43 25 47 -11 47 -21 0 -37 -8 -50 -24 -52 -67 -149
-21 -149 70 0 15 12 38 29 55 40 40 83 39 121 -1 17 -18 38 -30 54 -30 32 0
32 8 3 51 -26 39 -79 69 -122 69 -16 0 -45 -8 -64 -18z"/>
<path d="M3130 5335 l0 -145 30 0 c30 0 30 1 30 55 l0 55 50 0 c49 0 50 1 50
30 0 29 -1 30 -51 30 l-50 0 3 33 c3 32 4 32 61 35 53 3 57 5 57 27 0 25 -1
25 -90 25 l-90 0 0 -145z"/>
<path d="M3477 5473 c-8 -13 -107 -269 -107 -276 0 -4 14 -7 31 -7 24 0 32 6
40 30 10 29 13 30 69 30 56 0 59 -1 69 -30 8 -24 16 -30 40 -30 17 0 31 4 31
8 0 4 -24 68 -54 142 -51 129 -55 135 -84 138 -17 2 -32 -1 -35 -5z m56 -128
l16 -45 -39 0 -38 0 16 50 c8 27 19 47 23 44 4 -2 14 -24 22 -49z"/>
<path d="M4173 5463 c-3 -10 -28 -73 -55 -141 -26 -67 -48 -125 -48 -127 0 -3
13 -5 30 -5 23 0 33 7 45 30 14 28 19 30 71 30 52 0 56 -2 65 -30 9 -25 16
-30 45 -30 l34 0 -19 48 c-99 244 -95 237 -129 240 -24 2 -34 -1 -39 -15z m71
-141 c7 -20 4 -22 -33 -22 l-40 0 13 33 c7 17 16 41 20 52 7 18 9 17 20 -11 8
-17 17 -40 20 -52z"/>
<path d="M4870 5335 l0 -145 90 0 90 0 0 30 0 30 -60 0 -60 0 0 30 c0 30 0 30
56 30 54 0 55 0 52 28 -3 25 -6 27 -56 30 -51 3 -53 4 -50 30 3 25 6 27 61 30
53 3 57 5 57 27 0 25 -1 25 -90 25 l-90 0 0 -145z"/>
<path d="M5140 5378 c0 -62 5 -113 13 -127 29 -57 99 -79 166 -52 49 21 61 55
61 176 l0 105 -30 0 -30 0 0 -100 c0 -87 -3 -103 -20 -120 -26 -26 -46 -25
-75 5 -23 22 -25 32 -25 120 l0 95 -30 0 -30 0 0 -102z"/>
<path d="M5980 5335 l0 -145 90 0 90 0 0 30 c0 30 -1 30 -55 30 l-55 0 0 115
0 115 -35 0 -35 0 0 -145z"/>
<path d="M6240 5374 c0 -119 13 -154 64 -176 64 -26 134 -4 163 53 8 14 13 65
13 127 l0 102 -30 0 -30 0 0 -90 c0 -125 -23 -164 -85 -140 -31 12 -35 28 -35
136 l0 94 -30 0 -30 0 0 -106z"/>
<path d="M6580 5335 l0 -145 81 0 c76 0 82 2 110 29 34 34 37 68 10 102 -17
22 -17 27 -5 44 23 31 17 71 -12 94 -22 17 -41 21 -105 21 l-79 0 0 -145z
m145 65 c0 -22 -5 -25 -42 -28 -40 -3 -43 -1 -43 21 0 32 8 38 50 35 30 -3 35
-7 35 -28z m9 -105 c11 -30 -5 -45 -50 -45 -42 0 -44 1 -44 30 0 29 2 30 44
30 30 0 46 -5 50 -15z"/>
<path d="M6890 5335 l0 -145 90 0 90 0 0 30 0 30 -60 0 -60 0 0 30 c0 30 0 30
56 30 54 0 55 0 52 28 -3 25 -6 27 -56 30 -51 3 -53 4 -50 30 3 25 6 27 61 30
53 3 57 5 57 27 0 25 -1 25 -90 25 l-90 0 0 -145z"/>
<path d="M7300 5336 l0 -146 73 0 c115 0 174 42 184 132 6 50 -10 89 -52 128
-23 22 -37 25 -116 28 l-89 4 0 -146z m139 83 c39 -14 65 -60 56 -98 -11 -46
-44 -71 -92 -71 l-43 0 0 83 c0 46 3 87 7 90 9 10 36 8 72 -4z"/>
<path d="M7650 5335 l0 -145 90 0 90 0 0 30 0 30 -60 0 -60 0 0 30 c0 30 0 30
56 30 54 0 55 0 52 28 -3 25 -6 27 -56 30 -51 3 -53 4 -50 30 3 25 6 27 61 30
53 3 57 5 57 27 0 25 -1 25 -90 25 l-90 0 0 -145z"/>
<path d="M14635 5173 c-11 -3 -24 -9 -29 -14 -6 -5 -18 -9 -28 -9 -10 0 -18
-4 -18 -9 0 -5 -24 -13 -52 -17 -29 -4 -56 -9 -60 -10 -5 -1 -15 -2 -24 -3 -8
0 -13 -5 -10 -10 3 -5 -6 -8 -20 -8 -15 0 -30 -6 -34 -13 -4 -7 -13 -9 -19 -6
-6 4 -14 0 -17 -9 -6 -13 -9 -14 -16 -3 -7 10 -11 9 -23 -6 -8 -11 -15 -17
-15 -13 0 4 -11 2 -25 -3 -17 -6 -25 -6 -25 1 0 6 -7 3 -17 -6 -14 -14 -14
-18 -2 -26 11 -7 9 -9 -6 -7 -39 3 -66 -2 -61 -11 4 -5 -7 -12 -23 -16 -16 -3
-37 -15 -46 -25 -9 -10 -23 -16 -30 -14 -7 3 -16 -3 -19 -14 -4 -12 -15 -20
-29 -20 -12 1 -56 -4 -97 -10 -88 -13 -206 -17 -920 -37 -305 -8 -457 -15
-557 -26 -51 -5 -119 -9 -152 -9 -70 0 -62 18 -82 -187 -11 -113 -9 -188 7
-306 4 -30 2 -65 -6 -90 -7 -23 -16 -55 -21 -72 -10 -32 -100 -118 -137 -129
-18 -6 -22 -3 -22 13 0 11 -4 23 -10 26 -5 3 -10 17 -10 31 0 13 -20 64 -45
113 -25 49 -45 93 -45 98 0 5 -12 21 -27 35 -47 44 -102 34 -167 -28 -6 -6
-16 -9 -23 -7 -6 2 -17 -4 -25 -14 -16 -22 -68 -56 -75 -50 -2 3 -13 -3 -24
-14 -11 -11 -24 -17 -28 -14 -38 23 -40 -150 -3 -202 24 -34 318 -326 350
-348 30 -22 38 -14 47 42 12 83 54 120 65 57 7 -41 33 -38 35 4 1 18 9 40 18
49 16 16 17 14 16 -32 -1 -48 18 -118 48 -178 8 -15 11 -31 8 -37 -3 -5 8 -2
24 8 23 13 27 19 15 25 -17 10 -18 31 -2 60 11 21 12 21 27 -15 l16 -38 136
79 c165 94 359 215 354 219 -2 2 -17 -3 -33 -12 -25 -13 -32 -13 -41 -2 -13
16 -54 9 -48 -8 3 -6 -2 -17 -9 -24 -8 -7 -14 -11 -15 -10 -1 7 -1 117 0 168
2 47 4 52 13 33 6 -12 16 -24 22 -26 16 -6 81 26 82 41 1 6 2 17 3 22 0 6 6
10 13 10 6 0 9 -3 5 -6 -3 -4 10 -23 29 -43 26 -27 36 -33 43 -23 7 12 12 12
30 1 11 -8 21 -17 21 -22 0 -4 6 -5 13 -2 6 4 -1 -5 -16 -19 -15 -14 -34 -26
-41 -26 -7 0 -21 -10 -32 -22 -15 -17 -6 -14 42 13 69 38 126 78 87 59 -26
-12 -27 -11 -13 24 5 14 16 26 25 26 8 0 15 8 16 18 1 18 5 45 12 77 3 11 10
19 16 17 29 -6 4 33 -28 43 -13 4 -34 19 -47 34 -12 14 -32 37 -44 51 -11 14
-49 39 -83 55 -77 37 -85 65 -22 78 22 5 63 15 90 22 48 14 233 28 324 26 24
-1 49 3 55 8 6 6 35 10 63 9 28 0 64 3 80 6 15 3 60 1 98 -4 39 -6 91 -10 117
-10 35 1 52 -4 68 -20 l22 -22 346 208 c191 114 356 217 368 228 26 26 105 88
210 165 73 53 156 123 144 120 -3 -1 -14 -3 -25 -6z"/>
<path d="M14898 5170 c-2 -6 -13 -12 -26 -13 -12 0 -22 -7 -22 -15 0 -21 -37
-65 -42 -50 -4 10 -15 8 -44 -8 -29 -15 -38 -26 -37 -42 3 -28 -28 -45 -71
-37 -25 5 -35 3 -39 -9 -4 -10 -18 -16 -35 -16 -16 0 -35 -7 -42 -15 -7 -8
-19 -15 -26 -15 -8 0 -14 -3 -14 -7 0 -12 -59 -43 -83 -44 -12 0 2 -9 33 -20
38 -13 88 -46 159 -104 57 -47 107 -85 110 -85 4 0 13 16 20 35 7 20 30 52 51
73 21 20 50 62 64 92 47 102 84 290 57 290 -5 0 -11 -5 -13 -10z"/>
<path d="M4863 4890 c-30 -16 -48 -34 -64 -66 -67 -139 80 -270 219 -195 25
13 62 80 62 111 0 18 -6 20 -75 20 -68 0 -75 -2 -75 -20 0 -17 7 -20 40 -20
44 0 50 -9 23 -32 -27 -24 -57 -30 -88 -18 -40 15 -54 38 -55 88 0 51 33 92
75 92 30 0 85 -26 85 -40 0 -6 16 -10 36 -10 l36 0 -19 31 c-42 73 -125 97
-200 59z"/>
<path d="M5834 4896 c-35 -15 -44 -32 -44 -81 0 -41 22 -59 98 -81 57 -17 70
-44 31 -65 -23 -12 -69 2 -69 21 0 5 -16 10 -35 10 -40 0 -40 -1 -20 -40 20
-39 43 -50 104 -50 66 0 105 31 105 84 0 47 -24 71 -94 93 -42 14 -55 23 -55
38 0 26 62 35 71 11 4 -10 19 -16 40 -16 38 0 38 0 22 35 -23 50 -91 68 -154
41z"/>
<path d="M6301 4892 c-19 -9 -43 -29 -54 -44 -28 -38 -34 -116 -12 -161 47
-99 199 -107 255 -14 26 43 25 47 -11 47 -21 0 -37 -8 -50 -24 -52 -67 -149
-21 -149 70 0 15 12 38 29 55 40 40 83 39 121 -1 17 -18 38 -30 54 -30 32 0
32 8 3 51 -26 39 -79 69 -122 69 -16 0 -45 -8 -64 -18z"/>
<path d="M6662 4889 c-56 -28 -86 -84 -79 -147 9 -82 71 -134 158 -134 81 0
139 55 146 139 6 65 -20 111 -77 141 -55 28 -93 28 -148 1z m131 -59 c32 -25
43 -72 27 -111 -13 -30 -55 -59 -85 -59 -31 0 -72 29 -85 59 -36 89 68 170
143 111z"/>
<path d="M3130 4893 c0 -4 23 -70 52 -145 52 -135 54 -138 83 -138 30 0 31 3
80 132 65 172 63 160 23 156 -32 -3 -34 -6 -65 -93 -17 -49 -33 -94 -35 -99
-2 -5 -20 35 -39 90 -34 95 -37 99 -67 102 -18 2 -32 0 -32 -5z"/>
<path d="M3567 4893 c-8 -13 -107 -269 -107 -276 0 -4 14 -7 31 -7 24 0 32 6
40 30 10 29 13 30 69 30 56 0 59 -1 69 -30 8 -24 16 -30 40 -30 17 0 31 4 31
8 0 4 -24 68 -54 142 -51 129 -55 135 -84 138 -17 2 -32 -1 -35 -5z m56 -128
l16 -45 -39 0 -38 0 16 50 c8 27 19 47 23 44 4 -2 14 -24 22 -49z"/>
<path d="M3820 4755 l0 -145 30 0 30 0 0 85 c0 47 4 85 8 85 5 0 36 -38 70
-85 49 -67 67 -85 87 -85 l25 0 0 145 0 145 -30 0 -29 0 -3 -86 -3 -86 -60 86
c-54 78 -63 86 -92 86 l-33 0 0 -145z"/>
<path d="M4150 4875 c0 -22 4 -25 40 -25 l40 0 0 -120 0 -120 35 0 35 0 0 120
0 120 40 0 c36 0 40 3 40 25 l0 25 -115 0 -115 0 0 -25z"/>
<path d="M4511 4818 c-18 -46 -44 -111 -57 -145 l-24 -63 33 0 c27 0 35 5 44
30 11 28 14 30 68 30 53 0 57 -1 66 -30 9 -26 16 -30 46 -30 24 0 34 4 30 13
-2 6 -29 72 -58 145 -53 130 -54 132 -85 132 -29 0 -32 -4 -63 -82z m98 -85
c1 -8 -12 -13 -34 -13 -40 0 -41 4 -18 62 l17 42 17 -40 c10 -21 18 -45 18
-51z"/>
<path d="M5170 4755 l0 -145 90 0 90 0 0 30 0 30 -60 0 -60 0 0 30 c0 30 0 30
56 30 54 0 55 0 52 28 -3 25 -6 27 -56 30 -51 3 -53 4 -50 30 3 25 6 27 61 30
53 3 57 5 57 27 0 25 -1 25 -90 25 l-90 0 0 -145z"/>
<path d="M5440 4755 l0 -145 30 0 30 0 0 85 c0 47 4 85 8 85 5 0 36 -38 70
-85 49 -67 67 -85 87 -85 l25 0 0 145 0 145 -30 0 -29 0 -3 -86 -3 -86 -60 86
c-54 78 -63 86 -92 86 l-33 0 0 -145z"/>
<path d="M7006 4888 c-3 -7 -12 -62 -21 -123 -9 -60 -19 -120 -22 -133 -5 -21
-3 -23 28 -20 l34 3 12 78 c6 43 14 84 16 90 2 7 24 -30 47 -80 24 -51 46 -93
50 -93 4 0 25 38 46 86 20 47 41 87 45 90 4 2 13 -36 20 -86 l12 -90 33 0 c31
0 33 2 28 28 -3 15 -13 79 -22 142 l-18 115 -34 0 c-33 0 -35 -2 -69 -82 -20
-46 -38 -83 -41 -83 -3 0 -22 37 -41 83 -33 76 -38 82 -67 85 -20 2 -34 -2
-36 -10z"/>
<path d="M7647 4893 c-8 -13 -107 -269 -107 -276 0 -4 14 -7 31 -7 24 0 32 6
40 30 10 29 13 30 69 30 56 0 59 -1 69 -30 8 -24 16 -30 40 -30 17 0 31 4 31
8 0 4 -24 68 -54 142 -51 129 -55 135 -84 138 -17 2 -32 -1 -35 -5z m56 -128
l16 -45 -39 0 -38 0 16 50 c8 27 19 47 23 44 4 -2 14 -24 22 -49z"/>
<path d="M10945 4802 l-112 -3 -17 -36 -17 -36 253 -253 c139 -140 257 -254
261 -254 16 0 -17 117 -96 345 -25 72 -50 149 -56 172 -15 55 -35 74 -74 71
-17 -2 -81 -4 -142 -6z"/>
<path d="M10666 4393 c-5 -20 -2 -41 6 -58 11 -20 12 -39 4 -86 l-10 -61 -32
4 c-32 4 -33 3 -49 -57 -23 -81 -84 -379 -79 -384 7 -8 34 33 32 49 -1 15 9
63 19 90 4 8 7 22 7 31 1 9 6 22 13 30 6 8 16 27 22 42 6 15 17 27 25 27 30 0
65 -176 45 -228 -5 -13 -11 -80 -14 -150 -4 -119 -3 -128 17 -149 12 -13 29
-23 39 -23 9 0 33 -23 53 -50 20 -28 47 -55 61 -60 13 -5 31 -21 41 -35 10
-15 26 -25 40 -25 15 0 30 -10 41 -27 20 -34 36 -53 99 -119 88 -92 112 -124
118 -159 4 -19 11 -35 17 -35 5 0 26 35 45 78 20 42 45 87 57 100 11 12 22 32
24 44 2 12 10 32 18 44 12 19 17 20 49 10 34 -10 35 -12 21 -33 -17 -25 -20
-63 -6 -63 6 0 7 -15 5 -32 -5 -26 1 -42 25 -75 17 -24 31 -49 31 -56 0 -7 6
-22 14 -32 14 -19 15 -19 34 5 25 31 35 116 17 151 -8 15 -10 31 -5 39 4 7 5
23 0 34 -15 40 -478 734 -724 1086 -45 64 -88 127 -97 140 l-16 25 -7 -32z"/>
<path d="M5326 4184 c-14 -14 -16 -78 -16 -555 0 -444 3 -545 14 -567 46 -89
309 -136 460 -83 173 61 265 216 253 426 -10 191 -99 316 -256 362 -81 23
-201 14 -268 -20 l-53 -26 0 224 c0 254 0 255 -75 255 -26 0 -50 -6 -59 -16z
m416 -551 c51 -20 105 -85 123 -147 8 -27 15 -82 15 -122 0 -125 -46 -211
-140 -260 -48 -25 -168 -26 -232 -1 l-48 19 0 239 0 239 40 20 c82 42 160 46
242 13z"/>
<path d="M6199 4125 c-53 -29 -62 -111 -16 -153 31 -28 62 -35 101 -22 70 23
89 108 37 161 -33 33 -78 38 -122 14z"/>
<path d="M12875 4040 c-3 -6 1 -7 9 -4 18 7 21 14 7 14 -6 0 -13 -4 -16 -10z"/>
<path d="M15473 3851 c0 -82 -6 -147 -12 -160 -7 -11 -8 -21 -3 -21 6 0 3 -18
-4 -41 -8 -23 -12 -50 -9 -60 4 -10 2 -19 -4 -19 -16 0 -24 -40 -25 -120 l-1
-75 -27 3 c-14 2 -29 -2 -33 -8 -3 -5 -11 -8 -16 -5 -5 4 -17 1 -26 -5 -16
-10 -16 -11 2 -5 15 5 17 3 8 -5 -8 -9 -16 -9 -30 -1 -10 6 -12 11 -5 11 17 0
15 20 -3 20 -8 0 -15 -7 -15 -15 0 -8 -4 -15 -10 -15 -5 0 -10 -8 -10 -17 -1
-22 -50 -61 -50 -40 0 7 5 18 12 25 9 9 9 12 0 12 -9 0 -9 5 -3 18 6 9 22 45
37 80 15 34 30 62 34 62 17 0 30 59 26 117 -4 50 -9 67 -30 88 -30 30 -73 48
-81 35 -4 -6 -15 -10 -25 -10 -10 0 -23 -7 -28 -16 -5 -9 -13 -16 -18 -16 -5
0 -20 -5 -33 -10 -14 -5 -34 -10 -45 -11 -12 -1 -24 -8 -27 -16 -3 -8 -22 -15
-45 -16 -48 -2 -84 -17 -132 -52 -54 -40 -104 -83 -96 -83 4 0 -1 -9 -11 -20
-12 -13 -15 -27 -11 -44 4 -15 1 -28 -6 -33 -7 -4 -13 -17 -13 -28 0 -12 -6
-19 -14 -17 -12 3 -12 0 -2 -12 10 -11 10 -24 0 -58 -7 -24 -18 -50 -26 -59
-7 -8 -13 -20 -13 -25 0 -18 -43 -88 -81 -134 -21 -26 -39 -49 -39 -52 0 -4
-28 -35 -62 -70 -35 -34 -62 -64 -60 -66 2 -1 -6 -27 -17 -58 -12 -30 -21 -68
-21 -84 0 -16 -5 -42 -11 -57 -6 -15 -15 -37 -19 -48 -5 -11 -20 -50 -35 -87
-15 -37 -27 -70 -26 -73 1 -3 -24 -55 -55 -115 -58 -112 -90 -152 -122 -155
-11 0 -31 -11 -47 -23 -31 -25 -46 -27 -63 -10 -27 27 0 156 44 216 14 17 21
32 15 32 -12 0 10 84 37 136 12 23 18 44 15 48 -3 3 2 14 11 25 9 10 27 47 39
82 13 35 25 69 28 74 4 6 22 62 42 125 24 77 73 188 147 334 62 123 110 231
110 246 0 97 -59 68 -72 -35 -6 -42 -96 -245 -136 -305 -46 -68 -105 -208
-153 -360 -12 -36 -39 -106 -60 -157 -21 -51 -39 -100 -39 -110 -1 -28 -53
-172 -82 -228 -30 -58 -83 -115 -107 -115 -9 0 -26 -8 -39 -18 l-23 -18 36
-13 c33 -12 39 -10 90 18 72 41 90 39 40 -4 l-40 -35 38 -36 c20 -19 37 -29
37 -22 0 10 2 10 9 -1 5 -8 33 -15 72 -18 35 -2 70 -5 77 -5 6 -1 12 -4 12 -8
0 -12 -79 -60 -98 -60 -11 0 -51 32 -91 72 -39 40 -71 66 -71 57 0 -25 142
-159 170 -159 23 0 167 87 190 116 9 10 5 21 -15 49 l-27 35 26 0 c28 0 211
112 220 135 2 7 -4 25 -15 39 -35 45 -3 28 78 -39 43 -36 83 -65 89 -65 15 0
185 112 203 133 7 9 20 17 27 17 8 0 59 -41 114 -91 l100 -90 11 28 c10 27 40
98 84 199 l23 52 -49 48 c-27 27 -49 52 -49 58 0 11 28 34 58 46 19 8 21 13
12 31 -10 17 -7 27 16 61 16 22 38 44 50 48 28 11 80 77 111 143 21 42 27 73
32 167 l7 116 48 67 c45 63 49 74 57 150 8 70 18 132 45 255 5 25 -2 30 559
-437 309 -257 378 -313 350 -284 -21 22 -496 421 -753 632 l-153 126 8 65 c12
107 10 245 -4 243 -7 -2 -13 4 -13 12 0 8 -4 15 -8 15 -4 0 -8 -62 -9 -139z
m-283 -601 c0 -5 3 -9 8 -8 4 1 17 -1 30 -6 29 -10 30 -68 2 -114 -11 -18 -18
-37 -15 -42 3 -5 -5 -17 -18 -27 -12 -10 -35 -35 -51 -55 -22 -30 -35 -38 -59
-38 -29 0 -30 -1 -12 -14 19 -14 19 -15 -8 -27 -23 -10 -32 -10 -49 0 -11 7
-17 8 -14 2 10 -16 -24 -61 -45 -61 -11 0 -19 5 -19 10 0 6 4 10 10 10 5 0 7
6 4 14 -5 13 10 54 25 66 3 3 14 21 23 40 45 90 76 138 141 212 15 18 27 36
27 40 0 5 5 8 10 8 6 0 10 -4 10 -10z m-300 -439 c0 -6 -4 -13 -10 -16 -5 -3
-10 1 -10 9 0 9 5 16 10 16 6 0 10 -4 10 -9z m-30 -161 c0 -24 -59 -93 -60
-69 0 13 48 87 58 89 1 0 2 -9 2 -20z m-792 -595 c-12 -26 -34 -36 -24 -10 3
10 -1 15 -12 15 -15 0 -15 2 -2 10 8 5 23 10 32 10 15 0 16 -4 6 -25z"/>
<path d="M13390 3924 c-19 -14 -36 -29 -38 -33 -5 -13 122 -131 141 -131 20 0
97 46 96 58 -1 11 -136 127 -151 129 -7 1 -29 -10 -48 -23z m95 -54 c0 -8 -8
-16 -17 -18 -13 -2 -18 3 -18 18 0 15 5 20 18 18 9 -2 17 -10 17 -18z"/>
<path d="M4437 3775 c-15 -14 -17 -44 -17 -249 0 -325 -10 -367 -101 -414 -57
-30 -158 -27 -212 7 -60 37 -71 75 -75 251 -1 85 -5 165 -7 177 -8 37 -94 50
-132 20 -20 -15 -18 -367 2 -433 20 -67 72 -126 137 -155 47 -21 68 -23 193
-24 136 0 142 1 200 30 71 35 117 96 134 175 17 77 15 581 -2 604 -19 26 -98
33 -120 11z"/>
<path d="M13087 3738 c-48 -28 -87 -56 -87 -63 0 -13 365 -355 378 -355 14 0
175 104 179 115 3 9 -311 302 -366 342 -14 11 -31 4 -104 -39z m127 -2 c29
-24 28 -46 -2 -46 -24 1 -76 46 -68 59 11 17 39 12 70 -13z"/>
<path d="M4770 3774 c-39 -16 -40 -27 -40 -406 0 -355 1 -369 20 -388 26 -26
90 -27 113 -2 15 16 17 50 17 274 l0 255 30 41 c38 53 92 80 182 92 80 10 98
23 98 76 0 53 -23 67 -97 61 -76 -6 -141 -41 -182 -97 l-29 -40 -4 56 c-3 30
-9 59 -15 65 -12 12 -73 20 -93 13z"/>
<path d="M6202 3764 l-22 -15 0 -379 0 -379 22 -15 c31 -22 84 -20 108 4 19
19 20 33 20 388 0 202 -4 372 -8 378 -22 34 -84 43 -120 18z"/>
<path d="M6669 3767 c-63 -24 -103 -52 -132 -93 -54 -77 -45 -194 21 -257 32
-30 124 -77 202 -102 78 -25 148 -62 160 -84 13 -25 13 -67 0 -92 -18 -32 -70
-52 -137 -53 -54 0 -74 6 -148 43 -82 42 -86 43 -110 27 -13 -9 -28 -28 -31
-42 -20 -78 123 -155 286 -157 112 0 179 22 235 78 52 51 69 99 63 175 -8 107
-70 163 -251 226 -168 59 -212 112 -153 181 23 27 28 28 113 28 79 0 94 -4
150 -33 73 -37 86 -39 113 -12 46 46 12 108 -85 151 -63 28 -238 37 -296 16z"/>
<path d="M13557 3740 c-32 -21 -76 -49 -97 -61 -22 -13 -40 -27 -40 -31 0 -9
113 -117 136 -131 9 -5 30 2 56 18 120 73 162 101 164 110 3 11 -129 129 -149
132 -6 2 -38 -15 -70 -37z m121 -32 c-7 -19 -38 -22 -38 -4 0 10 9 16 21 16
12 0 19 -5 17 -12z m-128 -82 c0 -8 -5 -18 -11 -22 -14 -8 -33 11 -25 25 10
16 36 13 36 -3z m90 -38 c0 -16 -20 -7 -30 12 -10 19 -10 20 9 8 12 -7 21 -16
21 -20z"/>
<path d="M10497 3701 c-15 -71 -5 -100 22 -67 15 17 23 56 12 56 -4 0 -12 10
-18 22 -9 21 -10 20 -16 -11z"/>
<path d="M12843 3595 c-46 -30 -83 -59 -83 -64 0 -19 275 -272 291 -268 21 6
179 109 179 118 0 10 -280 264 -293 266 -7 1 -49 -22 -94 -52z m137 -13 c28
-25 41 -43 36 -51 -9 -14 -38 2 -80 44 -56 56 -17 62 44 7z m-112 -50 c34 -31
39 -42 20 -42 -22 0 -72 46 -64 58 9 16 8 16 44 -16z"/>
<path d="M14166 3571 c-20 -39 -81 -127 -134 -193 -19 -23 -46 -64 -60 -91
-15 -28 -33 -59 -39 -71 -7 -12 -13 -29 -13 -38 0 -10 -4 -18 -8 -18 -10 0
-32 -66 -62 -180 -12 -47 -27 -98 -32 -113 -6 -15 -8 -31 -4 -34 4 -4 9 3 12
15 4 14 13 21 27 19 21 -2 26 8 46 95 5 22 5 36 0 32 -15 -9 -10 6 10 32 11
14 23 44 26 67 4 23 18 55 30 72 24 31 166 278 204 353 12 24 21 54 19 67 -3
21 -5 19 -22 -14z"/>
<path d="M13763 3579 c-18 -12 -33 -28 -33 -37 0 -11 10 -6 35 18 48 47 48 51
-2 19z"/>
<path d="M12675 3496 c-11 -7 -50 -32 -87 -56 -38 -23 -68 -48 -68 -55 0 -15
124 -135 141 -135 14 0 82 38 148 83 l43 29 -73 74 c-41 41 -76 74 -79 73 -3
0 -14 -6 -25 -13z m65 -59 c0 -8 -9 -22 -20 -32 -19 -18 -20 -17 -20 1 0 20
17 44 32 44 4 0 8 -6 8 -13z m-89 -69 c-26 -20 -37 -22 -46 -8 -7 11 46 41 59
32 5 -3 -1 -13 -13 -24z"/>
<path d="M13530 3363 c-41 -25 -84 -53 -95 -64 -19 -19 -19 -19 15 -54 19 -19
37 -35 41 -35 4 0 10 14 14 30 4 17 18 43 32 58 49 53 83 101 75 105 -4 3 -41
-15 -82 -40z m-30 -103 c0 -15 -5 -12 -26 11 -19 22 -19 22 4 10 12 -6 22 -16
22 -21z"/>
<path d="M12410 3330 c-40 -26 -45 -36 -17 -31 5 1 5 -3 2 -9 -4 -6 -4 -21 -1
-34 6 -26 101 -128 110 -119 3 4 6 1 6 -5 0 -15 44 -15 95 0 44 13 51 15 62
17 8 1 -198 211 -207 211 -3 0 -25 -14 -50 -30z m99 -44 c42 -43 47 -66 14
-66 -20 0 -93 73 -93 94 0 29 35 17 79 -28z"/>
<path d="M13190 3304 c-41 -25 -84 -54 -94 -65 -20 -18 -19 -19 40 -74 103
-98 90 -96 194 -30 49 31 90 60 90 63 0 8 -142 152 -150 152 -3 0 -39 -21 -80
-46z m104 -53 c3 -5 -1 -12 -10 -15 -22 -9 -24 -8 -24 9 0 16 25 21 34 6z m76
-51 c-57 -43 -131 -82 -145 -76 -21 8 -19 26 3 26 9 0 32 9 51 21 64 39 105
59 110 53 3 -3 -5 -14 -19 -24z m-166 14 c23 -9 20 -34 -3 -34 -22 0 -35 15
-26 30 7 12 8 12 29 4z"/>
<path d="M12793 3280 c-45 -28 -85 -55 -89 -61 -4 -6 25 -43 65 -82 82 -83 75
-83 200 -3 l74 48 -74 74 c-40 41 -78 74 -84 74 -6 0 -48 -23 -92 -50z m137
-28 c0 -13 -49 -36 -57 -28 -5 4 1 14 11 22 22 15 46 19 46 6z m-96 -68 c-35
-28 -47 -30 -42 -7 4 20 47 45 61 36 5 -3 -4 -16 -19 -29z m155 11 c-5 -4
-105 -70 -135 -88 -6 -3 -19 2 -28 12 -15 17 -14 18 21 19 20 1 39 6 42 11 3
5 24 18 46 29 38 19 64 27 54 17z"/>
<path d="M12983 3100 c-51 -33 -93 -66 -93 -74 0 -21 129 -136 152 -136 21 0
158 81 177 104 8 9 -9 32 -67 89 l-77 76 -92 -59z m139 -25 c1 -14 -49 -41
-59 -32 -4 5 3 17 17 27 26 20 41 22 42 5z m52 -35 c14 -5 26 -13 26 -17 0 -9
-151 -103 -165 -103 -12 0 -115 101 -115 113 0 4 9 3 20 -3 11 -6 20 -17 20
-25 0 -7 4 -17 10 -20 5 -3 7 0 4 8 -3 10 6 21 27 31 39 20 39 20 39 1 0 -9
-11 -21 -25 -27 -14 -6 -25 -15 -25 -19 0 -12 72 0 90 15 8 7 23 16 33 19 9 4
17 13 17 22 0 18 9 19 44 5z"/>
<path d="M13360 3109 c-41 -27 -77 -56 -78 -64 -4 -16 32 -55 50 -55 14 0 9
16 -12 35 -28 25 -25 36 10 33 25 -2 29 -6 24 -23 -3 -11 8 3 26 30 18 28 41
60 53 73 31 34 10 25 -73 -29z"/>
<path d="M12597 3095 c-81 -54 -93 -68 -67 -73 21 -3 172 96 168 110 -8 22
-23 16 -101 -37z"/>
<path d="M13616 3125 c-9 -26 -7 -32 5 -12 6 10 9 21 6 23 -2 3 -7 -2 -11 -11z"/>
<path d="M12650 3044 c-80 -49 -95 -61 -69 -51 9 3 29 -1 43 -9 15 -7 30 -13
34 -13 24 4 42 -3 42 -16 0 -16 12 -20 24 -7 8 7 13 9 45 11 11 0 26 8 35 16
8 9 22 12 33 9 10 -4 -7 19 -37 50 -30 31 -59 56 -65 56 -6 0 -44 -21 -85 -46z
m121 -40 c10 -13 10 -17 -2 -25 -8 -5 -17 -9 -20 -9 -13 0 -31 29 -24 40 9 15
31 12 46 -6z"/>
<path d="M13594 3074 c-12 -31 -80 -129 -126 -179 -51 -56 -92 -76 -141 -68
-35 5 -35 5 -44 -38 -7 -35 -14 -46 -36 -53 -26 -9 -32 -5 -90 52 -46 47 -59
64 -50 73 9 9 23 9 55 1 27 -7 44 -8 46 -2 2 6 14 10 26 10 30 0 64 66 44 86
-11 11 -28 4 -100 -39 -48 -29 -90 -58 -93 -66 -8 -20 123 -151 150 -151 11 0
43 14 70 30 28 16 59 30 70 30 16 0 13 -7 -20 -38 l-39 -37 39 -5 c23 -3 52 1
67 8 16 7 37 10 49 7 13 -5 19 -3 15 3 -3 5 6 13 20 16 l25 7 -21 28 c-11 16
-20 34 -20 40 0 14 17 14 25 1 3 -5 10 -10 14 -10 14 0 87 297 76 308 -2 3 -8
-4 -11 -14z m-319 -123 c3 -5 2 -12 -3 -15 -5 -3 -9 1 -9 9 0 17 3 19 12 6z"/>
<path d="M12858 2962 c-1 -5 -38 -32 -81 -59 -62 -40 -75 -52 -64 -61 10 -9
30 0 89 37 85 55 94 64 74 80 -8 7 -16 8 -18 3z"/>
<path d="M12858 2872 c-61 -40 -85 -61 -53 -45 23 11 35 11 53 -1 8 -4 20 -2
29 6 15 11 16 11 10 -5 -4 -10 -3 -16 2 -12 5 3 12 -1 14 -7 3 -8 6 -6 6 5 1
9 8 17 16 17 8 0 15 7 15 16 0 8 5 12 10 9 19 -12 10 20 -10 38 -26 22 -25 22
-92 -21z"/>
<path d="M16457 2849 c12 -12 24 -21 27 -18 2 2 -8 13 -22 23 l-27 19 22 -24z"/>
<path d="M13819 2782 c-23 -13 -29 -28 -44 -105 -9 -50 -19 -96 -22 -104 -3
-8 2 -13 15 -13 20 0 31 29 35 90 1 14 5 28 10 31 7 5 39 111 34 114 -1 1 -14
-5 -28 -13z"/>
<path d="M12983 2724 c-80 -52 -100 -74 -68 -74 17 0 149 83 160 100 20 33
-19 22 -92 -26z"/>
<path d="M13270 2655 c0 -12 147 -145 162 -145 25 0 88 40 88 56 0 19 -5 18
-48 -11 -20 -14 -41 -25 -47 -25 -6 0 -40 29 -75 65 -57 58 -80 75 -80 60z"/>
<path d="M13195 2534 c-38 -25 -77 -49 -85 -54 -10 -6 -12 -12 -5 -18 13 -13
165 84 165 104 0 8 -1 14 -2 14 -2 0 -34 -21 -73 -46z"/>
<path d="M13740 2524 c0 -20 -26 -93 -34 -94 0 0 -32 -11 -71 -24 -52 -18 -75
-22 -90 -14 -12 6 -8 -2 12 -21 18 -17 40 -31 50 -31 15 0 15 -2 4 -9 -12 -8
-9 -11 12 -16 36 -9 50 3 87 79 28 58 51 156 36 156 -3 0 -6 -12 -6 -26z"/>
<path d="M13490 2435 c13 -14 26 -25 28 -25 3 0 -5 11 -18 25 -13 14 -26 25
-28 25 -3 0 5 -11 18 -25z"/>
<path d="M2974 2371 c-51 -22 -70 -95 -35 -130 10 -10 44 -26 74 -35 60 -18
75 -36 48 -60 -24 -21 -47 -20 -71 4 -11 11 -31 20 -45 20 -34 0 -33 -33 1
-65 22 -20 37 -25 81 -25 47 0 59 4 84 29 31 32 36 55 18 95 -11 23 -71 56
-102 56 -24 0 -48 25 -41 43 8 21 57 23 74 2 16 -20 70 -20 70 -1 0 8 -10 27
-23 41 -25 30 -94 43 -133 26z"/>
<path d="M3310 2369 c-66 -26 -107 -99 -95 -169 13 -75 73 -122 156 -122 90 0
149 61 149 155 0 103 -111 175 -210 136z m121 -78 c46 -46 35 -117 -22 -146
-63 -33 -129 9 -129 82 0 87 90 125 151 64z"/>
<path d="M5843 2361 c-60 -28 -85 -72 -81 -141 6 -91 60 -142 149 -142 93 0
154 58 154 147 0 117 -114 186 -222 136z m132 -66 c75 -74 -12 -198 -105 -150
-56 29 -67 100 -21 146 38 38 91 40 126 4z"/>
<path d="M6334 2366 c-52 -23 -65 -98 -23 -133 8 -6 34 -17 59 -24 75 -21 93
-49 45 -71 -22 -10 -30 -8 -55 10 -35 26 -80 29 -80 6 0 -8 13 -29 29 -45 26
-25 37 -29 86 -29 71 0 105 28 105 88 0 48 -19 67 -91 90 -42 13 -54 22 -54
37 0 26 62 35 71 11 8 -22 64 -22 64 0 0 28 -19 52 -51 63 -41 14 -67 13 -105
-3z"/>
<path d="M8433 2361 c-60 -28 -85 -72 -81 -141 6 -91 60 -142 149 -142 93 0
154 58 154 147 0 117 -114 186 -222 136z m132 -66 c75 -74 -12 -198 -105 -150
-56 29 -67 100 -21 146 38 38 91 40 126 4z"/>
<path d="M13370 2329 c-75 -49 -87 -62 -59 -66 17 -3 151 87 157 105 7 22 -22
11 -98 -39z"/>
<path d="M2040 2225 l0 -145 35 0 c35 0 35 0 35 44 l0 43 47 6 c37 4 54 12 76
37 25 28 28 39 24 74 -9 66 -41 86 -138 86 l-79 0 0 -145z m140 75 c11 -11 20
-24 20 -29 0 -19 -32 -41 -61 -41 -28 0 -29 2 -29 45 0 41 2 45 25 45 14 0 34
-9 45 -20z"/>
<path d="M2340 2225 l0 -145 90 0 90 0 0 30 c0 30 -1 30 -55 30 -54 0 -55 0
-55 30 0 29 1 30 50 30 49 0 50 1 50 30 0 29 -1 30 -50 30 -49 0 -50 1 -50 30
0 30 1 30 55 30 52 0 55 1 55 25 0 25 -1 25 -90 25 l-90 0 0 -145z"/>
<path d="M2620 2225 l0 -145 30 0 c29 0 30 1 30 51 0 46 2 50 22 47 14 -2 32
-20 48 -48 23 -39 31 -45 63 -48 l38 -3 -31 49 c-35 57 -36 65 -14 83 27 22
36 58 24 95 -17 52 -43 64 -132 64 l-78 0 0 -145z m134 82 c11 -8 17 -23 14
-38 -3 -21 -9 -24 -45 -27 l-43 -3 0 40 c0 38 2 41 28 41 16 0 36 -6 46 -13z"/>
<path d="M3610 2225 l0 -145 30 0 30 0 0 85 c0 47 4 85 8 85 5 0 36 -38 70
-85 49 -67 67 -85 87 -85 l25 0 0 145 0 145 -30 0 -29 0 -3 -86 -3 -86 -60 86
c-54 78 -63 86 -92 86 l-33 0 0 -145z"/>
<path d="M4043 2353 c-3 -10 -28 -73 -55 -141 -26 -67 -48 -125 -48 -127 0 -3
13 -5 30 -5 23 0 33 7 45 30 14 28 19 30 71 30 52 0 56 -2 65 -30 9 -25 16
-30 45 -30 l34 0 -19 48 c-99 244 -95 237 -129 240 -24 2 -34 -1 -39 -15z m71
-141 c7 -20 4 -22 -33 -22 l-40 0 13 33 c7 17 16 41 20 52 7 18 9 17 20 -11 8
-17 17 -40 20 -52z"/>
<path d="M4310 2225 l0 -145 85 0 85 0 0 30 c0 30 -1 30 -55 30 l-55 0 0 115
0 115 -30 0 -30 0 0 -145z"/>
<path d="M4560 2225 l0 -145 35 0 35 0 0 145 0 145 -35 0 -35 0 0 -145z"/>
<path d="M4720 2345 c0 -24 3 -25 55 -25 30 0 55 -2 55 -5 0 -2 -27 -53 -60
-113 -33 -60 -60 -112 -60 -116 0 -3 50 -6 110 -6 l110 0 0 30 0 30 -60 0
c-33 0 -60 3 -60 6 0 4 25 51 55 107 30 55 55 104 55 108 0 5 -45 9 -100 9
l-100 0 0 -25z"/>
<path d="M5010 2225 l0 -145 90 0 90 0 0 30 c0 30 -1 30 -55 30 -54 0 -55 0
-55 30 0 29 1 30 50 30 49 0 50 1 50 30 0 29 -1 30 -50 30 -49 0 -50 1 -50 30
0 30 1 30 55 30 52 0 55 1 55 25 0 25 -1 25 -90 25 l-90 0 0 -145z"/>
<path d="M5430 2225 l0 -145 67 0 c118 0 185 52 185 144 0 55 -24 101 -65 126
-24 15 -50 20 -109 20 l-78 0 0 -145z m168 59 c52 -58 12 -144 -68 -144 l-40
0 0 91 0 92 43 -7 c27 -4 50 -15 65 -32z"/>
<path d="M6590 2225 l0 -145 90 0 90 0 0 30 c0 30 -1 30 -55 30 -54 0 -55 0
-55 30 0 29 1 30 50 30 49 0 50 1 50 30 0 29 -1 30 -50 30 -49 0 -50 1 -50 30
0 30 1 30 55 30 52 0 55 1 55 25 0 25 -1 25 -90 25 l-90 0 0 -145z"/>
<path d="M6862 2261 c4 -127 18 -157 85 -179 32 -10 46 -10 78 0 64 22 78 51
83 178 l5 110 -36 0 -36 0 -3 -107 c-3 -104 -4 -108 -29 -122 -24 -13 -29 -13
-53 2 -25 17 -26 20 -26 122 l0 105 -36 0 -36 0 4 -109z"/>
<path d="M7480 2291 c0 -43 -3 -93 -6 -110 -11 -55 -66 -64 -85 -15 -6 18 -16
24 -40 24 -29 0 -31 -2 -24 -27 16 -69 71 -101 140 -82 57 16 69 46 74 176 l3
113 -31 0 -31 0 0 -79z"/>
<path d="M7640 2225 l0 -145 90 0 90 0 0 30 0 30 -60 0 -60 0 0 30 c0 29 1 30
50 30 49 0 50 1 50 30 0 29 -1 30 -51 30 -49 0 -50 1 -47 28 3 25 7 27 56 30
48 3 52 5 52 28 0 24 -1 24 -85 24 l-85 0 0 -145z"/>
<path d="M7910 2225 l0 -145 35 0 35 0 0 145 0 145 -35 0 -35 0 0 -145z"/>
<path d="M8060 2346 c0 -21 5 -25 38 -28 l37 -3 3 -117 3 -118 29 0 29 0 3
118 3 117 38 3 c32 3 37 7 37 28 0 24 0 24 -110 24 -110 0 -110 0 -110 -24z"/>
<path d="M15146 2321 c-5 -7 -1 -9 8 -5 9 3 23 3 32 0 15 -6 15 -8 -1 -26 -18
-20 -18 -20 16 -14 19 3 39 7 46 9 7 2 10 -2 7 -9 -3 -8 4 -16 16 -19 16 -4
19 -3 10 7 -8 11 -4 13 22 10 17 -2 36 -10 41 -17 7 -9 10 -9 14 1 3 7 25 12
56 13 l52 1 -70 14 c-38 8 -78 12 -88 10 -10 -2 -14 0 -11 6 4 7 -6 9 -29 6
-20 -2 -33 0 -31 4 3 4 -1 8 -9 8 -8 0 -28 3 -45 6 -17 3 -32 1 -36 -5z"/>
<path d="M14746 2235 c-135 -92 -133 -81 -40 -169 43 -42 89 -79 101 -82 16
-4 45 10 112 56 50 34 91 68 91 75 0 12 -161 167 -178 172 -4 1 -43 -23 -86
-52z m89 -97 c-13 -17 -16 -18 -11 -4 5 15 2 17 -19 12 -37 -9 -30 2 8 12 40
11 43 9 22 -20z"/>
<path d="M15478 2263 c7 -3 16 -2 19 1 4 3 -2 6 -13 5 -11 0 -14 -3 -6 -6z"/>
<path d="M15160 2246 c0 -2 7 -7 16 -10 8 -3 12 -2 9 4 -6 10 -25 14 -25 6z"/>
<path d="M15210 2240 c-8 -5 -11 -12 -7 -16 4 -4 2 -13 -4 -21 -6 -7 -8 -13
-4 -13 4 0 14 8 21 18 9 10 17 13 21 7 5 -5 15 -11 23 -13 10 -1 9 2 -4 13
-11 8 -25 15 -30 15 -6 0 -4 5 4 10 8 5 11 10 5 10 -5 0 -17 -4 -25 -10z"/>
<path d="M14385 2169 c-87 -59 -110 -80 -103 -99 8 -22 160 -150 179 -150 20
0 199 115 199 128 0 8 -172 182 -180 182 -3 0 -46 -27 -95 -61z m104 -100 c-8
-5 -21 -8 -29 -8 -8 0 -5 4 8 9 12 5 22 15 23 22 0 10 2 10 6 -1 3 -7 -1 -17
-8 -22z"/>
<path d="M15300 2205 c0 -8 4 -15 8 -15 5 0 9 7 9 15 0 8 -4 15 -9 15 -4 0 -8
-7 -8 -15z"/>
<path d="M15117 2187 c3 -5 16 -6 28 -3 13 3 27 2 30 -4 3 -5 11 -10 16 -10 6
0 4 6 -3 14 -15 14 -80 17 -71 3z"/>
<path d="M15262 2184 c-35 -17 -39 -26 -12 -23 14 2 30 1 35 -3 6 -3 28 -9 50
-13 38 -7 39 -6 20 9 -11 8 -25 16 -32 16 -6 0 -18 6 -25 13 -10 10 -18 10
-36 1z"/>
<path d="M13581 2134 c-59 -39 -80 -59 -73 -66 15 -15 173 88 165 108 -3 8 -6
14 -7 14 0 0 -39 -25 -85 -56z"/>
<path d="M13710 2134 c0 -2 15 -11 33 -20 27 -14 30 -15 19 -2 -11 14 -52 31
-52 22z"/>
<path d="M15465 2130 c-18 -8 -17 -9 8 -9 16 -1 26 3 22 9 -3 6 -7 10 -8 9 -1
0 -11 -4 -22 -9z"/>
<path d="M15165 2036 c50 -47 98 -88 108 -91 12 -4 44 11 96 47 43 29 77 55
76 56 -2 2 -75 17 -162 33 -87 16 -169 31 -183 34 -19 4 -2 -16 65 -79z"/>
<path d="M15540 2110 c14 -4 36 -8 50 -8 22 0 22 1 -5 8 -16 4 -39 8 -50 8
-16 0 -15 -2 5 -8z"/>
<path d="M15638 2093 c7 -3 16 -2 19 1 4 3 -2 6 -13 5 -11 0 -14 -3 -6 -6z"/>
<path d="M14956 2025 c-126 -85 -123 -75 -36 -157 104 -97 113 -103 142 -86
64 35 168 115 168 128 0 18 -165 170 -183 169 -7 0 -48 -24 -91 -54z m114 -89
c-16 -20 -56 -21 -64 -1 -3 8 -1 15 3 15 5 0 11 -5 13 -12 3 -7 12 -9 22 -5
13 5 16 13 11 29 -7 22 -6 22 11 6 14 -14 15 -20 4 -32z"/>
<path d="M15420 1983 c-80 -53 -99 -69 -100 -84 0 -17 232 -219 251 -219 21 0
150 85 204 136 l30 27 -93 87 c-79 73 -101 89 -143 98 -28 7 -54 12 -57 12 -4
0 -45 -25 -92 -57z"/>
<path d="M14599 1960 c-48 -32 -89 -67 -93 -76 -5 -13 12 -37 66 -91 40 -41
83 -76 96 -80 17 -4 45 9 108 51 47 31 88 64 91 73 5 12 -18 40 -81 100 -48
46 -90 83 -94 82 -4 0 -46 -27 -93 -59z m121 -72 c0 -4 -13 -14 -29 -22 -26
-14 -30 -14 -42 1 -12 14 -11 15 9 9 16 -5 21 -4 17 6 -4 9 3 13 20 13 14 0
25 -3 25 -7z"/>
<path d="M16068 2013 c7 -3 16 -2 19 1 4 3 -2 6 -13 5 -11 0 -14 -3 -6 -6z"/>
<path d="M1790 1370 l0 -630 3690 0 3690 0 0 630 0 630 -3690 0 -3690 0 0
-630z m1440 535 c0 -2 -5 -16 -12 -30 -13 -28 -61 -38 -53 -10 3 8 7 22 10 30
4 13 55 23 55 10z m-973 -99 c40 -20 63 -62 63 -113 0 -87 -57 -133 -161 -133
l-69 0 0 136 0 137 68 -5 c37 -3 82 -12 99 -22z m342 6 c19 -10 43 -34 53 -53
80 -148 -119 -281 -231 -154 -54 61 -38 163 32 205 40 25 102 25 146 2z m269
-64 l36 -82 38 83 c36 76 40 82 66 79 27 -3 27 -4 48 -136 l21 -133 -31 3
c-30 3 -31 4 -41 75 -5 39 -13 74 -16 77 -3 3 -20 -28 -38 -69 -19 -42 -38
-78 -42 -81 -5 -3 -27 31 -48 76 -21 45 -41 78 -43 74 -3 -5 -9 -36 -13 -68
-9 -79 -13 -86 -44 -86 l-28 0 19 123 c23 151 22 147 53 147 23 0 30 -10 63
-82z m342 -53 l0 -135 -30 0 -30 0 0 128 c0 71 3 132 7 135 3 4 17 7 30 7 23
0 23 0 23 -135z m207 53 l58 -83 3 83 c3 80 3 82 27 82 l25 0 0 -135 c0 -135
0 -135 -23 -135 -18 0 -38 20 -83 83 l-59 82 -3 -82 c-3 -81 -3 -83 -27 -83
l-25 0 0 135 0 135 24 0 c19 0 37 -18 83 -82z m271 -55 l3 -133 -31 0 -30 0 0
136 0 135 28 -3 27 -3 3 -132z m312 102 c84 -80 53 -204 -58 -235 -101 -27
-195 63 -172 165 16 71 70 108 148 102 41 -3 59 -10 82 -32z m717 11 c40 -20
63 -62 63 -113 0 -87 -57 -133 -161 -133 l-69 0 0 136 0 137 68 -5 c37 -3 82
-12 99 -22z m303 -6 c0 -29 -1 -30 -50 -30 -47 0 -50 -2 -50 -25 0 -23 4 -25
45 -25 41 0 45 -2 45 -25 0 -23 -4 -25 -45 -25 -43 0 -45 -1 -45 -30 0 -30 1
-30 55 -30 52 0 55 -1 55 -25 0 -25 -1 -25 -85 -25 l-85 0 0 128 c0 71 3 132
7 135 3 4 39 7 80 7 l73 0 0 -30z m223 19 c26 -12 51 -54 42 -70 -10 -16 -41
-10 -60 11 -23 26 -60 23 -60 -4 0 -14 13 -24 49 -36 48 -16 86 -49 86 -77 0
-8 -7 -27 -15 -43 -17 -33 -70 -53 -116 -43 -31 6 -82 58 -76 77 7 21 48 19
64 -3 16 -24 55 -28 73 -6 18 21 6 32 -55 50 -58 17 -75 35 -75 84 0 56 79 89
143 60z m317 -19 c0 -28 -3 -30 -35 -30 l-35 0 0 -105 0 -105 -30 0 -30 0 0
105 0 105 -35 0 c-32 0 -35 2 -35 30 l0 30 100 0 100 0 0 -30z m253 -87 c25
-65 49 -126 53 -135 5 -15 1 -18 -23 -18 -22 0 -33 7 -41 25 -10 22 -18 25
-62 25 -45 0 -52 -3 -60 -25 -7 -19 -17 -25 -41 -25 -21 0 -30 4 -26 13 103
265 99 257 127 257 25 0 30 -8 73 -117z m343 86 c30 -27 54 -77 54 -112 0 -12
-9 -40 -20 -62 -20 -39 -20 -39 0 -60 11 -12 20 -24 20 -28 0 -15 -48 -6 -64
12 -14 16 -23 18 -49 10 -95 -27 -189 67 -167 166 9 42 24 61 65 87 43 27 125
20 161 -13z m192 -68 c3 -101 11 -121 48 -121 44 0 54 23 54 126 l0 95 28 -3
c27 -3 27 -3 30 -90 4 -110 -12 -152 -65 -174 -47 -20 -102 -6 -132 33 -18 22
-21 40 -21 130 l0 104 28 -3 27 -3 3 -94z m410 67 c3 -27 2 -28 -47 -28 -48 0
-51 -2 -51 -25 0 -23 4 -25 45 -25 41 0 45 -2 45 -25 0 -23 -4 -25 -45 -25
-43 0 -45 -1 -45 -30 0 -29 1 -30 50 -30 47 0 50 -2 50 -25 0 -25 -1 -25 -80
-25 l-80 0 0 135 0 136 78 -3 c76 -3 77 -3 80 -30z m236 10 c14 -13 26 -32 28
-43 4 -29 -39 -33 -59 -6 -16 24 -45 27 -62 7 -10 -11 -7 -17 11 -30 12 -9 29
-16 38 -16 8 0 30 -9 48 -20 27 -17 32 -26 32 -58 0 -65 -60 -102 -133 -81
-38 10 -67 41 -67 71 0 26 51 24 68 -3 17 -28 66 -23 70 7 3 18 -6 24 -55 40
-69 23 -93 56 -73 104 22 52 109 68 154 28z m676 -88 l0 -110 50 0 c47 0 50
-2 50 -25 0 -25 -1 -25 -80 -25 l-80 0 0 135 0 135 30 0 30 0 0 -110z m369 92
c19 -10 43 -34 53 -53 80 -148 -119 -281 -231 -154 -54 61 -38 163 32 205 40
25 102 25 146 2z m341 3 c31 -16 60 -51 60 -72 0 -8 -12 -13 -30 -13 -16 0
-30 5 -30 11 0 5 -16 17 -35 25 -30 12 -40 12 -63 2 -40 -19 -56 -60 -42 -103
19 -56 76 -73 121 -35 l24 19 -37 1 c-34 0 -38 3 -38 25 0 24 2 25 71 25 l72
0 -7 -32 c-14 -69 -63 -111 -129 -111 -54 0 -102 25 -123 64 -20 40 -20 113 1
145 38 58 124 81 185 49z m347 -5 c45 -27 65 -62 65 -114 0 -82 -57 -139 -136
-139 -78 0 -133 47 -142 120 -14 109 118 192 213 133z m-6492 -634 c41 -18 55
-55 32 -89 -13 -20 -13 -26 -1 -42 23 -32 18 -81 -12 -104 -21 -17 -41 -21
-95 -21 l-69 0 0 135 0 135 55 0 c31 0 71 -6 90 -14z m308 -103 c25 -65 49
-126 53 -135 5 -15 1 -18 -23 -18 -22 0 -33 7 -41 25 -10 22 -18 25 -62 25
-45 0 -52 -3 -60 -25 -7 -19 -17 -25 -41 -25 -21 0 -30 4 -26 13 103 265 99
257 127 257 25 0 30 -8 73 -117z m237 35 l60 -82 0 82 0 82 30 0 30 0 0 -135
0 -135 -25 0 c-20 0 -38 17 -85 82 l-60 82 0 -82 0 -82 -30 0 -30 0 0 128 c0
71 3 132 7 135 20 21 47 1 103 -75z m320 0 l60 -82 0 82 0 82 30 0 30 0 0
-135 0 -135 -25 0 c-20 0 -38 17 -85 82 l-60 82 0 -82 0 -82 -30 0 -30 0 0
128 c0 71 3 132 7 135 20 21 47 1 103 -75z m370 52 c0 -29 -1 -30 -50 -30 -47
0 -50 -2 -50 -25 0 -23 4 -25 45 -25 41 0 45 -2 45 -25 0 -23 -4 -25 -45 -25
-43 0 -45 -1 -45 -30 0 -30 1 -30 55 -30 52 0 55 -1 55 -25 0 -25 -1 -25 -85
-25 l-85 0 0 128 c0 71 3 132 7 135 3 4 39 7 80 7 l73 0 0 -30z m229 19 c32
-11 61 -52 61 -88 0 -11 -11 -32 -24 -48 l-24 -29 29 -47 29 -47 -34 0 c-30 0
-37 5 -58 42 -13 24 -31 44 -41 46 -14 3 -17 -4 -17 -42 0 -44 -1 -46 -30 -46
l-30 0 0 135 0 135 54 0 c29 0 67 -5 85 -11z m295 -10 c34 -27 36 -69 3 -69
-12 0 -30 9 -40 20 -18 22 -34 25 -56 11 -24 -15 -5 -38 43 -50 59 -15 86 -41
86 -84 0 -39 -22 -63 -68 -77 -61 -17 -132 22 -132 72 0 26 46 24 60 -2 13
-25 68 -28 77 -4 8 21 -8 34 -64 53 -58 19 -83 55 -68 98 19 53 109 71 159 32z
m802 -12 c53 -62 19 -143 -65 -154 -40 -5 -41 -7 -41 -44 0 -37 -2 -39 -30
-39 l-30 0 0 136 0 136 71 -4 c63 -3 74 -7 95 -31z m234 29 c0 -2 24 -63 54
-135 l54 -131 -34 0 c-28 0 -35 4 -40 25 -6 23 -11 25 -60 25 -49 0 -55 -3
-64 -25 -7 -19 -17 -25 -40 -25 l-30 0 21 53 c12 28 31 80 44 114 35 91 43
103 70 103 14 0 25 -2 25 -4z m340 -21 c43 -39 45 -100 3 -132 -14 -11 -13
-17 11 -57 14 -24 26 -47 26 -50 0 -3 -13 -6 -29 -6 -24 0 -34 8 -55 45 -17
29 -34 45 -46 45 -17 0 -20 -7 -20 -45 0 -43 -1 -45 -30 -45 l-30 0 0 128 c0
71 3 132 8 136 4 4 37 6 74 4 48 -3 72 -9 88 -23z m337 -19 c18 -19 33 -40 33
-46 0 -16 -56 -12 -71 6 -36 44 -97 36 -124 -16 -41 -80 59 -160 119 -95 14
14 34 25 50 25 30 0 31 -2 12 -39 -21 -39 -64 -64 -111 -64 -84 0 -137 54
-137 140 0 82 62 137 146 130 42 -4 55 -10 83 -41z m271 12 c3 -27 2 -28 -47
-28 -48 0 -51 -2 -51 -25 0 -23 4 -25 45 -25 41 0 45 -2 45 -25 0 -23 -4 -25
-45 -25 -43 0 -45 -1 -45 -30 0 -29 1 -30 50 -30 47 0 50 -2 50 -25 0 -25 -1
-25 -80 -25 l-80 0 0 135 0 136 78 -3 c76 -3 77 -3 80 -30z m142 -103 l0 -135
-30 0 -30 0 0 128 c0 71 3 132 7 135 3 4 17 7 30 7 23 0 23 0 23 -135z m239
124 c32 -11 61 -52 61 -88 0 -11 -11 -32 -24 -48 l-24 -29 29 -47 29 -47 -34
0 c-30 0 -37 5 -58 42 -13 24 -31 44 -41 46 -14 3 -17 -4 -17 -42 0 -44 -1
-46 -30 -46 l-30 0 0 135 0 135 54 0 c29 0 67 -5 85 -11z m340 -7 c19 -10 43
-34 53 -53 80 -148 -119 -281 -231 -154 -54 61 -38 163 32 205 40 25 102 25
146 2z m306 -7 c32 -31 33 -65 2 -65 -12 0 -30 9 -40 20 -18 22 -34 25 -56 11
-23 -15 -6 -36 40 -50 80 -24 110 -76 74 -128 -44 -63 -185 -37 -185 34 0 18
5 23 25 23 14 0 29 -8 35 -20 11 -21 45 -26 69 -11 24 15 5 38 -45 55 -61 21
-84 42 -84 78 0 46 39 78 95 78 35 0 52 -6 70 -25z m685 10 c31 -16 60 -51 60
-72 0 -20 -50 -15 -68 6 -27 32 -82 31 -112 -1 -28 -31 -26 -83 5 -113 31 -32
69 -32 101 0 27 27 74 34 74 11 0 -25 -49 -74 -85 -86 -82 -27 -175 42 -175
130 0 46 28 99 64 121 37 23 96 24 136 4z m339 -3 c19 -10 43 -34 53 -53 80
-148 -119 -281 -231 -154 -54 61 -38 163 32 205 40 25 102 25 146 2z m290 7
c32 -11 61 -52 61 -88 0 -11 -11 -32 -24 -48 l-24 -29 29 -47 29 -47 -34 0
c-30 0 -37 5 -58 42 -13 24 -31 44 -41 46 -14 3 -17 -4 -17 -42 0 -44 -1 -46
-30 -46 l-30 0 0 135 0 135 54 0 c29 0 67 -5 85 -11z m306 -19 c0 -23 -4 -25
-52 -28 -49 -3 -53 -5 -53 -28 0 -22 4 -24 50 -24 47 0 50 -2 50 -25 0 -23 -3
-25 -51 -25 -49 0 -50 -1 -47 -27 3 -26 7 -28 56 -31 48 -3 52 -5 52 -28 0
-24 -1 -24 -85 -24 l-85 0 0 128 c0 71 3 132 7 136 4 4 41 5 83 4 73 -3 75 -4
75 -28z m240 5 c32 -31 33 -65 2 -65 -12 0 -30 9 -40 20 -18 22 -34 25 -56 11
-23 -15 -6 -36 40 -50 80 -24 110 -76 74 -128 -44 -63 -185 -37 -185 34 0 18
5 23 25 23 14 0 29 -8 35 -20 11 -21 45 -26 69 -11 24 15 5 38 -45 55 -61 21
-84 42 -84 78 0 46 39 78 95 78 35 0 52 -6 70 -25z"/>
<path d="M2150 1689 l0 -82 38 6 c99 16 96 157 -5 157 l-33 0 0 -81z"/>
<path d="M2495 1768 c-32 -17 -45 -39 -45 -79 0 -71 85 -105 135 -54 42 41 31
105 -22 133 -27 15 -42 15 -68 0z"/>
<path d="M3870 1767 c-95 -49 -26 -189 75 -151 19 8 45 55 45 83 0 27 -39 69
-70 76 -14 3 -36 -1 -50 -8z"/>
<path d="M4610 1689 l0 -82 38 6 c99 16 96 157 -5 157 l-33 0 0 -81z"/>
<path d="M5722 1707 c-16 -46 -16 -47 18 -47 17 0 30 3 30 7 0 14 -24 73 -30
73 -3 0 -11 -15 -18 -33z"/>
<path d="M6030 1767 c-74 -38 -48 -157 34 -157 l30 0 -29 30 -29 30 31 0 c17
0 36 -7 44 -16 12 -14 14 -14 26 2 19 27 16 60 -9 88 -28 31 -65 40 -98 23z"/>
<path d="M7935 1768 c-32 -17 -45 -39 -45 -79 0 -71 85 -105 135 -54 42 41 31
105 -22 133 -27 15 -42 15 -68 0z"/>
<path d="M8620 1767 c-34 -17 -55 -57 -46 -90 24 -99 160 -83 160 18 0 60 -62
99 -114 72z"/>
<path d="M2147 1133 c-4 -3 -7 -17 -7 -30 0 -22 4 -24 37 -21 60 5 57 57 -3
58 -11 0 -24 -3 -27 -7z"/>
<path d="M2142 1003 c2 -23 9 -29 33 -31 19 -3 33 2 41 13 20 28 6 45 -38 45
-37 0 -39 -2 -36 -27z"/>
<path d="M2452 1067 c-16 -46 -16 -47 18 -47 17 0 30 3 30 7 0 14 -24 73 -30
73 -3 0 -11 -15 -18 -33z"/>
<path d="M3620 1096 c0 -31 3 -36 23 -36 13 0 32 6 43 14 26 20 8 50 -35 54
-30 3 -31 2 -31 -32z"/>
<path d="M4690 1095 c0 -35 1 -36 33 -33 28 3 32 6 32 33 0 27 -4 30 -32 33
-32 3 -33 2 -33 -33z"/>
<path d="M4986 1070 c-9 -23 -15 -45 -12 -47 2 -2 17 -3 33 -1 l29 3 -17 44
-16 44 -17 -43z"/>
<path d="M5260 1101 c0 -36 11 -44 49 -36 58 13 46 65 -15 65 -31 0 -34 -3
-34 -29z"/>
<path d="M6280 1096 c0 -31 3 -36 23 -36 13 0 32 6 43 14 26 20 8 50 -35 54
-30 3 -31 2 -31 -32z"/>
<path d="M6595 1128 c-32 -17 -45 -39 -45 -79 0 -71 85 -105 135 -54 42 41 31
105 -22 133 -27 15 -42 15 -68 0z"/>
<path d="M7925 1128 c-32 -17 -45 -39 -45 -79 0 -71 85 -105 135 -54 42 41 31
105 -22 133 -27 15 -42 15 -68 0z"/>
<path d="M8240 1096 c0 -31 3 -36 23 -36 13 0 32 6 43 14 26 20 8 50 -35 54
-30 3 -31 2 -31 -32z"/>
<path d="M14222 1967 c-46 -34 -44 -45 6 -49 33 -2 42 -13 20 -21 -10 -4 -10
-7 0 -18 10 -11 12 -10 12 4 0 12 8 16 30 14 22 -1 29 -6 24 -17 -3 -8 4 -5
16 8 11 12 24 22 28 22 16 -1 29 -16 26 -32 -2 -18 16 -24 30 -11 9 10 -115
133 -134 132 -8 0 -34 -15 -58 -32z"/>
<path d="M16178 1993 c7 -3 16 -2 19 1 4 3 -2 6 -13 5 -11 0 -14 -3 -6 -6z"/>
<path d="M13787 1932 c-69 -46 -85 -61 -74 -70 10 -8 30 1 87 40 90 60 82 53
78 72 -2 12 -23 3 -91 -42z"/>
<path d="M15174 1817 c-49 -35 -90 -70 -92 -79 -4 -19 136 -158 173 -172 29
-11 44 -5 138 64 41 31 67 57 67 69 0 17 -170 181 -188 181 -5 0 -48 -28 -98
-63z m102 -62 c-4 -10 1 -15 17 -16 20 -1 20 -2 2 -6 -11 -3 -23 -10 -27 -17
-6 -8 -8 -7 -8 2 0 6 -8 12 -17 13 -14 0 -13 2 5 9 12 5 22 14 22 20 0 5 3 10
6 10 3 0 4 -7 0 -15z"/>
<path d="M14103 1845 c30 -42 146 -145 163 -145 11 0 54 23 95 51 96 66 106
76 92 90 -9 9 -32 -3 -91 -45 -122 -86 -115 -85 -197 -8 -38 37 -66 63 -62 57z"/>
<path d="M14820 1753 c-46 -32 -88 -66 -94 -76 -9 -15 1 -30 70 -97 56 -55 89
-80 105 -80 29 0 199 115 199 135 0 15 -169 175 -186 175 -5 0 -48 -26 -94
-57z m119 -67 c10 -11 7 -17 -11 -30 -29 -20 -44 -20 -52 0 -13 35 39 60 63
30z"/>
<path d="M14897 1683 c-4 -3 -7 -12 -7 -20 0 -11 4 -11 20 -3 11 6 18 15 15
21 -7 11 -19 12 -28 2z"/>
<path d="M15748 1752 c-47 -31 -100 -68 -118 -82 l-32 -25 22 -28 c12 -15 57
-59 100 -97 90 -79 94 -79 179 -17 83 61 131 108 131 127 0 15 -142 149 -181
171 -12 6 -39 -7 -101 -49z"/>
<path d="M14422 1749 c-40 -28 -72 -55 -72 -60 0 -15 34 -49 50 -49 13 0 13
-2 1 -9 -12 -8 -12 -12 -2 -25 20 -24 5 -19 -41 14 -22 17 -46 30 -51 30 -16
0 144 -158 165 -163 12 -3 51 16 107 53 95 62 109 76 93 92 -7 7 -21 2 -46
-17 -20 -15 -40 -24 -47 -19 -7 4 -9 3 -5 -4 7 -12 -74 -72 -97 -72 -8 0 -29
13 -46 28 -31 26 -31 29 -14 43 25 21 83 25 83 6 0 -18 51 -10 63 9 4 8 17 14
27 14 11 0 20 5 20 10 0 6 8 10 18 10 10 0 21 2 24 5 5 5 -143 155 -153 155
-3 0 -37 -23 -77 -51z m96 -75 c14 -15 14 -18 -9 -35 -29 -23 -33 -23 -49 -4
-14 16 -6 35 16 35 8 0 14 5 14 10 0 14 9 12 28 -6z"/>
<path d="M14004 1725 c-78 -55 -98 -75 -73 -75 17 0 169 100 169 111 0 23 -24
13 -96 -36z"/>
<path d="M15411 1615 c-41 -30 -84 -63 -95 -74 l-20 -21 59 -61 c74 -76 132
-119 159 -119 19 0 117 61 164 103 12 11 22 28 22 36 0 21 -179 191 -199 190
-9 0 -49 -25 -90 -54z m119 -84 c0 -5 -15 -11 -34 -13 -19 -2 -32 0 -30 4 3 4
16 8 30 8 17 0 23 4 18 12 -4 7 -3 8 4 4 7 -4 12 -11 12 -15z"/>
<path d="M15043 1542 c-45 -31 -83 -63 -83 -70 0 -7 -4 -10 -10 -7 -5 3 -10 0
-10 -8 0 -23 165 -177 190 -177 23 0 158 81 186 111 10 11 13 26 9 38 -8 25
-167 171 -186 171 -8 -1 -51 -27 -96 -58z m127 -72 c0 -5 -7 -7 -15 -4 -10 4
-15 0 -15 -15 0 -21 -24 -29 -35 -11 -4 6 1 7 11 3 13 -5 16 -3 11 9 -3 9 -3
19 0 22 10 10 43 7 43 -4z"/>
<path d="M15955 1522 c-60 -43 -111 -84 -113 -93 -1 -8 28 -46 65 -85 115
-120 149 -158 131 -148 -9 5 -36 27 -60 49 -150 139 -236 215 -242 215 -16 0
-206 -142 -206 -154 0 -11 46 -57 359 -348 153 -143 156 -144 287 -61 64 40
90 76 69 93 -28 23 -15 32 18 11 l33 -20 33 20 c42 25 162 121 177 140 6 8 11
26 12 41 1 22 -15 41 -95 112 -54 47 -104 86 -113 86 -9 0 -27 -7 -40 -17 -14
-9 -19 -10 -12 -3 26 29 14 64 -40 116 -75 71 -137 124 -146 124 -4 0 -57 -35
-117 -78z"/>
<path d="M14632 1531 c-46 -32 -85 -61 -88 -64 -7 -6 82 -102 119 -129 28 -20
28 -20 70 1 l42 20 -30 -24 c-16 -14 -38 -25 -49 -25 -10 0 -47 28 -83 63 -68
65 -93 84 -93 69 0 -19 165 -172 186 -172 30 0 194 117 194 139 0 15 -168 182
-182 181 -1 -1 -40 -27 -86 -59z m118 -80 c0 -4 -13 -14 -28 -23 -22 -13 -32
-14 -40 -6 -18 18 -14 32 5 17 15 -12 16 -12 10 4 -6 15 -3 17 13 12 16 -5 19
-3 13 12 -6 16 -5 16 10 4 9 -7 17 -16 17 -20z"/>
<path d="M14203 1507 c-51 -34 -92 -66 -93 -70 0 -4 7 -10 14 -13 19 -7 180
106 184 129 2 9 0 17 -5 17 -4 0 -49 -29 -100 -63z"/>
<path d="M15282 1336 c-76 -56 -112 -89 -112 -104 0 -5 38 -45 84 -90 90 -89
107 -95 167 -65 58 28 149 93 149 106 -1 7 -6 22 -13 33 -18 32 -173 174 -188
174 -8 0 -47 -25 -87 -54z m110 -106 c-3 -3 -7 1 -9 8 -3 6 -9 12 -15 12 -6 0
-8 -7 -4 -15 3 -9 0 -15 -9 -15 -19 0 -19 5 1 36 l17 25 12 -23 c6 -13 10 -25
7 -28z"/>
<path d="M14843 1308 c-46 -33 -83 -67 -83 -75 0 -8 -4 -11 -10 -8 -5 3 -10 2
-10 -3 0 -14 176 -182 191 -182 26 1 194 126 197 147 2 15 -21 43 -85 102 -48
44 -94 81 -103 80 -8 0 -52 -28 -97 -61z m109 -60 c-18 -18 -15 -27 8 -21 24
6 26 -4 3 -29 -20 -22 -41 -24 -22 -2 12 15 11 16 -9 10 -24 -8 -29 3 -9 23
10 11 8 11 -10 2 -13 -6 -23 -8 -23 -3 0 10 38 30 60 31 11 1 11 -2 2 -11z"/>
<path d="M14431 1295 c-52 -36 -102 -65 -110 -65 -9 0 -45 28 -80 63 l-65 62
43 -52 c52 -65 97 -103 120 -103 30 0 191 119 191 141 0 10 -1 19 -2 19 -2 0
-45 -30 -97 -65z"/>
<path d="M12122 1338 c-17 -17 -15 -23 12 -24 18 -1 22 2 19 17 -6 22 -14 24
-31 7z"/>
<path d="M14496 1250 c-38 -28 -64 -50 -58 -50 7 0 12 -7 12 -15 0 -19 24 -19
40 0 7 8 16 12 21 9 13 -7 11 -34 -2 -34 -5 0 -7 5 -4 10 3 6 1 10 -5 10 -7 0
-10 -7 -6 -15 3 -8 -3 -19 -12 -25 -15 -10 -15 -11 3 -5 49 17 58 17 70 1 11
-14 13 -15 19 -1 9 24 -5 47 -25 42 -11 -3 -19 -1 -19 4 0 5 13 9 29 9 16 0
34 7 41 15 9 11 17 12 32 4 19 -10 20 -34 1 -34 -9 0 -43 -29 -43 -37 0 -2 9
-4 20 -4 11 0 20 6 20 12 0 7 14 20 32 29 31 15 33 15 56 -9 l25 -24 -78 -57
c-131 -98 -117 -97 -207 -8 -43 43 -78 73 -78 67 0 -21 157 -164 180 -164 30
0 200 118 200 139 0 9 -26 41 -57 71 -32 30 -49 45 -39 33 23 -28 8 -30 -26
-3 -14 10 -28 16 -32 13 -3 -3 -6 3 -6 15 0 11 -5 24 -10 27 -6 4 -8 11 -5 16
15 23 -26 4 -89 -41z m94 16 c0 -2 -7 -6 -15 -10 -8 -3 -15 -1 -15 4 0 6 7 10
15 10 8 0 15 -2 15 -4z m-57 -57 c-8 -8 -13 -7 -18 2 -5 8 -4 10 3 5 7 -4 12
-2 12 5 0 7 3 9 7 6 4 -4 2 -12 -4 -18z"/>
<path d="M12125 1260 c4 -6 1 -17 -5 -25 -10 -12 -9 -15 4 -15 10 0 16 9 16
25 0 14 -5 25 -11 25 -5 0 -7 -5 -4 -10z"/>
<path d="M12100 1200 c0 -5 5 -10 10 -10 6 0 10 5 10 10 0 6 -4 10 -10 10 -5
0 -10 -4 -10 -10z"/>
<path d="M11790 1175 c-20 -11 -21 -14 -7 -15 14 0 16 -4 7 -19 -13 -25 -13
-31 0 -31 6 0 10 3 9 8 -2 15 14 52 22 52 5 0 9 5 9 10 0 13 -10 12 -40 -5z"/>
<path d="M15500 1100 c-52 -39 -96 -76 -98 -83 -2 -12 57 -72 280 -284 43 -42
85 -73 96 -73 11 0 60 28 108 63 49 34 92 61 96 59 13 -3 9 11 -10 40 -19 31
-356 348 -369 348 -4 0 -51 -32 -103 -70z m237 -119 c0 -11 -6 -17 -14 -14
-16 6 -17 20 0 26 6 3 13 6 14 6 1 1 1 -8 0 -18z m51 -58 c-13 -16 -29 -17
-25 -1 4 22 21 37 29 25 4 -6 2 -17 -4 -24z m36 -17 c-3 -9 1 -13 13 -13 10 1
17 -4 16 -10 -2 -7 4 -13 13 -13 10 0 14 -6 11 -15 -4 -8 -2 -17 3 -20 6 -4
10 -1 10 5 0 6 5 8 10 5 11 -7 4 -25 -8 -25 -4 0 -25 17 -48 38 -36 34 -47 62
-23 62 4 0 6 -6 3 -14z m-33 -169 c-1 -12 -15 -9 -19 4 -3 6 1 10 8 8 6 -3 11
-8 11 -12z"/>
<path d="M15081 1094 c-50 -36 -91 -72 -91 -79 0 -8 -6 -15 -12 -15 -7 0 28
-40 77 -90 49 -49 98 -90 108 -90 23 0 194 117 202 137 5 15 -140 174 -176
194 -13 6 -40 -8 -108 -57z m123 -81 c14 -36 -39 -58 -65 -27 -11 14 -10 19 9
35 25 20 47 17 56 -8z"/>
<path d="M15153 1003 c-3 -8 -3 -16 -1 -19 9 -8 38 8 38 20 0 17 -31 16 -37
-1z"/>
<path d="M11840 1131 c0 -5 5 -13 10 -16 6 -3 10 -2 10 4 0 5 -4 13 -10 16 -5
3 -10 2 -10 -4z"/>
<path d="M11825 1099 c-4 -5 -11 -6 -17 -3 -7 4 -8 2 -4 -4 4 -6 14 -8 23 -5
11 4 14 3 9 -5 -4 -7 -1 -12 8 -12 9 0 16 6 16 14 0 17 -27 29 -35 15z"/>
<path d="M14480 1106 c0 -2 7 -7 16 -10 8 -3 12 -2 9 4 -6 10 -25 14 -25 6z"/>
<path d="M11578 1059 c-9 -9 -14 -20 -10 -23 3 -3 0 -6 -6 -6 -7 0 -12 -4 -12
-10 0 -14 16 -12 32 3 7 8 19 16 26 18 10 3 10 7 0 20 -12 15 -14 15 -30 -2z"/>
<path d="M14706 1018 l-88 -62 22 -18 c12 -10 19 -18 16 -18 -4 0 19 -27 51
-59 l58 -60 15 27 c9 16 26 28 40 30 14 2 27 8 28 13 2 5 10 9 18 9 8 0 14 4
14 8 0 4 14 16 30 25 20 12 30 14 30 6 0 -8 4 -8 15 1 8 7 15 9 15 4 -1 -11
-168 -127 -193 -134 -24 -7 -26 -20 -5 -34 14 -8 25 -7 50 7 66 36 168 118
168 135 0 18 -167 182 -185 182 -6 0 -51 -28 -99 -62z m162 -30 c20 -20 14
-28 -20 -29 -26 0 -29 -2 -14 -8 14 -5 16 -10 7 -15 -6 -4 -18 -5 -26 -2 -20
7 -19 36 0 36 9 0 18 7 21 15 7 18 16 19 32 3z m-93 -88 c0 -29 -22 -37 -50
-16 -17 12 -17 16 -5 30 20 25 55 16 55 -14z"/>
<path d="M11730 1011 c0 -10 19 -25 25 -20 1 2 -3 10 -11 17 -8 7 -14 8 -14 3z"/>
<path d="M12075 990 c3 -5 8 -10 11 -10 2 0 4 5 4 10 0 6 -5 10 -11 10 -5 0
-7 -4 -4 -10z"/>
<path d="M14460 983 c0 -5 -20 -21 -45 -36 -25 -16 -45 -35 -45 -43 0 -20 15
-17 60 12 28 19 40 34 40 50 0 13 -2 24 -5 24 -3 0 -5 -3 -5 -7z"/>
<path d="M11545 960 c-3 -5 -1 -10 4 -10 6 0 11 5 11 10 0 6 -2 10 -4 10 -3 0
-8 -4 -11 -10z"/>
<path d="M14612 910 c7 -11 21 -23 30 -26 10 -3 18 -9 18 -13 0 -15 82 -91 92
-85 12 8 -120 144 -139 144 -11 0 -11 -4 -1 -20z"/>
<path d="M15319 868 c-143 -105 -146 -78 27 -244 82 -79 157 -146 166 -149 23
-8 208 123 208 146 0 15 -295 309 -310 309 -3 0 -44 -28 -91 -62z m305 -187
c28 -29 28 -51 0 -51 -8 0 -12 4 -9 10 3 5 -5 12 -18 15 -17 5 -24 13 -22 28
1 12 3 23 4 25 4 8 21 -2 45 -27z"/>
<path d="M11520 909 c0 -5 5 -7 10 -4 6 3 10 8 10 11 0 2 -4 4 -10 4 -5 0 -10
-5 -10 -11z"/>
<path d="M14937 793 c-69 -51 -87 -70 -84 -85 5 -16 3 -17 -9 -7 -8 6 -14 8
-14 5 0 -17 176 -186 193 -186 18 0 158 93 192 126 10 10 12 21 7 31 -15 26
-175 183 -186 182 -6 0 -51 -30 -99 -66z m163 -39 c0 -15 -50 -52 -56 -42 -4
6 4 19 17 29 25 19 39 24 39 13z m-105 -86 c-14 -11 -29 -17 -33 -13 -8 8 40
45 51 38 4 -2 -4 -14 -18 -25z m175 3 c0 -5 -25 -27 -55 -50 -38 -29 -55 -37
-55 -26 0 8 5 15 11 15 11 0 82 50 87 63 5 10 12 9 12 -2z m-125 -101 c-3 -5
-11 -10 -16 -10 -6 0 -7 5 -4 10 3 6 11 10 16 10 6 0 7 -4 4 -10z"/>
<path d="M11470 819 c0 -5 5 -7 10 -4 6 3 10 8 10 11 0 2 -4 4 -10 4 -5 0 -10
-5 -10 -11z"/>
<path d="M15177 563 c-50 -37 -87 -72 -86 -82 0 -12 2 -12 9 4 5 11 9 14 11 8
1 -7 2 -19 3 -25 1 -7 8 -12 15 -10 7 1 10 -1 7 -6 -3 -5 18 -31 46 -58 28
-27 47 -43 43 -35 -6 11 -4 13 10 8 9 -4 25 -2 33 5 13 11 14 11 7 -2 -6 -11
-4 -11 11 2 10 9 26 18 34 20 8 2 17 5 20 8 3 3 23 16 45 28 l40 22 -29 -23
c-16 -12 -47 -37 -70 -56 -78 -64 -78 -64 -159 17 -40 40 -79 72 -87 72 -18 0
137 -158 165 -170 25 -9 32 -5 133 69 56 42 80 65 77 78 -1 10 -8 17 -15 15
-6 -1 -9 2 -5 7 5 9 -128 145 -159 163 -6 3 -51 -23 -99 -59z m121 -82 c3 -8
-1 -12 -9 -9 -7 2 -15 10 -17 17 -3 8 1 12 9 9 7 -2 15 -10 17 -17z m-60 -32
c7 -12 11 -23 8 -27 -7 -6 -46 27 -46 40 0 16 25 8 38 -13z"/>
<path d="M14843 596 c0 -8 3 -13 7 -11 4 2 24 -14 46 -36 l39 -41 -35 -30
c-19 -16 -48 -37 -65 -45 l-30 -16 -70 75 c-38 40 -79 80 -90 88 -11 8 23 -30
75 -83 53 -55 103 -97 113 -97 27 0 117 68 117 89 0 9 -24 40 -53 69 -31 31
-54 47 -54 38z"/>
<path d="M14826 543 c-6 -14 -5 -15 5 -6 7 7 10 15 7 18 -3 3 -9 -2 -12 -12z"/>
<path d="M14910 305 c19 -19 36 -35 39 -35 3 0 -10 16 -29 35 -19 19 -36 35
-39 35 -3 0 10 -16 29 -35z"/>
<path d="M15178 262 c-1 -5 -29 -28 -61 -52 -47 -35 -55 -45 -43 -52 24 -13
126 66 119 92 -6 22 -9 25 -15 12z"/>
<path d="M14975 240 c10 -11 20 -20 23 -20 3 0 -3 9 -13 20 -10 11 -20 20 -23
20 -3 0 3 -9 13 -20z"/>
</g>
</svg>
