<svg width="56" height="56" viewBox="0 0 56 56" fill="none" xmlns="http://www.w3.org/2000/svg">
<g filter="url(#filter0_d_2_366)">
<circle cx="28" cy="24" r="24" fill="#F8F8F8"/>
</g>
<path d="M25.5125 35.8875C25.5125 37.2625 26.625 38.375 28 38.375C29.375 38.375 30.4875 37.2625 30.4875 35.8875H25.5125ZM28 17.125C31.45 17.125 34.25 19.925 34.25 23.375V32.125H21.75V23.375C21.75 19.925 24.55 17.125 28 17.125ZM28 11.5C26.9625 11.5 26.125 12.3375 26.125 13.375V14.8375C22.2 15.6875 19.25 19.1875 19.25 23.375V30.875L16.75 33.375V34.625H39.25V33.375L36.75 30.875V23.375C36.75 19.1875 33.8 15.6875 29.875 14.8375V13.375C29.875 12.3375 29.0375 11.5 28 11.5Z" fill="#5F6368"/>
<defs>
<filter id="filter0_d_2_366" x="0" y="0" width="56" height="56" filterUnits="userSpaceOnUse" color-interpolation-filters="sRGB">
<feFlood flood-opacity="0" result="BackgroundImageFix"/>
<feColorMatrix in="SourceAlpha" type="matrix" values="0 0 0 0 0 0 0 0 0 0 0 0 0 0 0 0 0 0 127 0" result="hardAlpha"/>
<feOffset dy="4"/>
<feGaussianBlur stdDeviation="2"/>
<feComposite in2="hardAlpha" operator="out"/>
<feColorMatrix type="matrix" values="0 0 0 0 0 0 0 0 0 0 0 0 0 0 0 0 0 0 0.25 0"/>
<feBlend mode="normal" in2="BackgroundImageFix" result="effect1_dropShadow_2_366"/>
<feBlend mode="normal" in="SourceGraphic" in2="effect1_dropShadow_2_366" result="shape"/>
</filter>
</defs>
</svg>
