<svg width="40" height="33" viewBox="0 0 40 33" fill="none" xmlns="http://www.w3.org/2000/svg">
<path d="M36 16.6667C36 14.4667 37.8 12.6667 40 12.6667V4.66666C40 2.46666 38.2 0.666656 36 0.666656H4C1.8 0.666656 0.02 2.46666 0.02 4.66666V12.6667C2.22 12.6667 4 14.4667 4 16.6667C4 18.8667 2.22 20.6667 0 20.6667V28.6667C0 30.8667 1.8 32.6667 4 32.6667H36C38.2 32.6667 40 30.8667 40 28.6667V20.6667C37.8 20.6667 36 18.8667 36 16.6667ZM27.16 26.2667L20 21.6667L12.84 26.2667L15 18.0267L8.42 12.6467L16.9 12.1467L20 4.26666L23.08 12.1667L31.56 12.6667L24.98 18.0467L27.16 26.2667Z" fill="#FFA100"/>
</svg>
