<svg width="34" height="66" viewBox="0 0 34 66" fill="none" xmlns="http://www.w3.org/2000/svg">
<path d="M33.6666 28.7667V3.99999C33.6666 2.16666 32.1666 0.666656 30.3333 0.666656H3.66665C1.83331 0.666656 0.333313 2.16666 0.333313 3.99999V28.7667C0.333313 29.9333 0.933312 31.0333 1.96665 31.6333L15.9 40L12.6 47.8L5.19998 48.4333C3.66665 48.5667 3.06665 50.4 4.19998 51.3667L9.83331 56.2333L8.13331 63.5C7.79998 64.9333 9.36665 66.0667 10.6333 65.3L17 61.4333L23.3666 65.2667C24.6333 66.0333 26.2 64.9 25.8666 63.4667L24.1666 56.2L29.8 51.3333C30.9 50.3667 30.3333 48.5333 28.8333 48.4L21.4333 47.7667L18.1333 39.9667L32.0666 31.6C33.0666 31.0333 33.6666 29.9667 33.6666 28.7667ZM20.3333 34.7667L17 36.7667L13.6666 34.7667V3.99999H20.3333V34.7667Z" fill="#FFA100"/>
</svg>
